<?xml version="1.0" encoding="UTF-8" ?>
<!DOCTYPE svg PUBLIC "-//W3C//DTD SVG 1.1//EN" "http://www.w3.org/Graphics/SVG/1.1/DTD/svg11.dtd">
<svg width="229pt" height="256pt" viewBox="0 0 229 256" version="1.1" xmlns="http://www.w3.org/2000/svg">
<g id="#1ecd97ff">
<path fill="#1ecd97" opacity="1.00" d=" M 104.85 1.77 C 112.45 -1.07 121.29 -0.36 128.29 3.76 C 157.42 20.65 186.65 37.36 215.75 54.30 C 223.31 58.63 227.88 66.88 229.00 75.37 L 229.00 180.55 C 227.90 189.06 223.29 197.35 215.72 201.69 C 186.85 218.52 157.84 235.09 128.94 251.88 C 120.52 257.05 109.30 257.35 100.76 252.29 C 71.62 235.44 42.41 218.69 13.31 201.77 C 5.77 197.43 1.15 189.24 0.00 180.76 L 0.00 75.32 C 1.12 66.85 5.72 58.61 13.26 54.29 C 40.66 38.34 68.17 22.59 95.60 6.69 C 98.63 4.96 101.57 3.02 104.85 1.77 M 64.50 48.21 C 59.19 62.46 53.57 76.61 48.23 90.85 C 50.09 90.83 51.95 90.80 53.81 90.77 C 55.45 86.31 57.01 81.82 58.68 77.37 C 64.68 77.37 70.69 77.34 76.70 77.38 C 78.47 81.85 80.09 86.37 81.88 90.83 C 83.88 90.83 85.88 90.83 87.88 90.84 C 82.13 76.61 76.19 62.46 70.56 48.19 C 68.54 48.13 66.52 48.14 64.50 48.21 M 92.61 48.11 C 92.59 62.35 92.52 76.59 92.65 90.83 C 94.36 90.83 96.07 90.82 97.77 90.81 C 97.97 78.82 97.62 66.82 97.96 54.84 C 102.73 66.62 106.27 78.89 110.62 90.84 C 112.20 90.83 113.77 90.82 115.35 90.81 C 119.70 78.89 123.23 66.66 128.05 54.93 C 128.49 66.89 128.11 78.86 128.25 90.82 C 129.97 90.83 131.68 90.83 133.40 90.84 C 133.47 76.60 133.46 62.36 133.41 48.12 C 130.92 48.13 128.42 48.13 125.93 48.13 C 121.61 60.31 117.84 72.70 113.18 84.74 C 109.05 72.57 104.90 60.40 100.88 48.19 C 98.12 48.13 95.37 48.12 92.61 48.11 M 142.88 48.17 C 142.88 62.37 142.89 76.58 142.88 90.78 C 144.67 90.80 146.46 90.82 148.25 90.84 C 148.25 84.45 148.35 78.06 148.19 71.68 C 152.99 71.56 159.03 70.21 162.60 74.37 C 167.05 79.38 169.97 85.50 173.87 90.90 C 176.01 90.83 178.15 90.80 180.30 90.77 C 175.52 84.06 172.28 75.89 165.19 71.17 C 168.40 70.53 171.82 69.60 174.09 67.07 C 178.87 62.14 177.40 52.85 171.32 49.66 C 168.10 48.14 164.47 48.11 160.99 48.12 C 154.95 48.16 148.92 48.10 142.88 48.17 M 53.39 115.45 C 49.71 115.73 47.67 119.56 48.13 122.96 C 48.18 149.34 48.07 175.72 48.18 202.10 C 48.05 205.72 51.51 208.54 55.01 208.22 C 94.67 208.24 134.34 208.23 174.00 208.23 C 177.64 208.63 181.26 205.85 181.17 202.07 C 181.32 175.71 181.17 149.35 181.25 122.99 C 181.29 120.81 180.91 118.38 179.12 116.92 C 177.26 115.02 174.38 115.38 171.97 115.30 C 132.45 115.44 92.91 115.13 53.39 115.45 Z" />
<path fill="#1ecd97" opacity="1.00" d=" M 67.21 52.44 C 69.83 59.06 72.12 65.80 74.74 72.42 C 69.98 72.51 65.22 72.48 60.46 72.44 C 62.84 65.82 65.88 59.39 67.21 52.44 Z" />
<path fill="#1ecd97" opacity="1.00" d=" M 148.42 53.12 C 154.26 53.31 160.13 52.76 165.94 53.43 C 169.99 54.03 172.88 58.86 170.70 62.58 C 168.95 66.11 164.52 66.55 161.02 66.61 C 156.82 66.64 152.63 66.60 148.43 66.59 C 148.39 62.10 148.40 57.61 148.42 53.12 Z" />
<path fill="#1ecd97" opacity="1.00" d=" M 63.84 139.60 C 66.65 139.48 69.47 139.45 72.28 139.52 C 72.28 144.68 72.29 149.84 72.26 154.99 C 74.91 152.53 78.18 150.35 81.97 150.58 C 86.84 150.40 91.78 153.93 92.09 159.01 C 92.64 166.81 92.18 174.65 92.33 182.47 C 89.58 182.48 86.84 182.48 84.10 182.45 C 84.13 176.30 84.22 170.14 84.09 163.99 C 83.89 161.70 84.04 158.70 81.62 157.49 C 77.90 155.50 72.92 158.25 72.58 162.46 C 71.91 169.10 72.45 175.80 72.28 182.46 C 69.48 182.48 66.68 182.48 63.88 182.44 C 63.84 168.16 63.90 153.88 63.84 139.60 Z" />
<path fill="#1ecd97" opacity="1.00" d=" M 137.07 139.51 C 139.81 139.49 142.55 139.49 145.30 139.52 C 145.28 144.57 145.34 149.63 145.23 154.69 C 147.71 152.59 150.56 150.51 153.98 150.58 C 160.06 150.20 165.65 154.95 166.76 160.84 C 168.47 168.26 167.25 177.99 159.84 181.91 C 154.65 184.91 148.12 182.58 144.63 178.08 C 144.62 179.54 144.62 181.01 144.62 182.48 C 142.10 182.48 139.58 182.47 137.06 182.46 C 137.12 168.14 137.11 153.83 137.07 139.51 M 149.38 157.48 C 146.61 158.80 145.31 161.98 145.27 164.91 C 145.11 168.41 145.21 172.46 147.92 175.07 C 150.41 177.82 155.34 177.41 157.28 174.21 C 159.47 170.72 159.07 166.24 158.44 162.35 C 157.79 158.36 153.12 155.48 149.38 157.48 Z" />
<path fill="#1ecd97" opacity="1.00" d=" M 100.48 151.37 C 103.25 151.33 106.02 151.33 108.79 151.35 C 109.04 158.84 108.19 166.42 109.30 173.85 C 111.19 179.23 119.97 176.88 120.28 171.62 C 120.83 164.90 120.43 158.13 120.53 151.40 C 123.29 151.33 126.06 151.32 128.82 151.36 C 128.82 161.73 128.79 172.09 128.83 182.46 C 126.29 182.48 123.74 182.48 121.20 182.46 C 121.21 180.97 121.24 179.48 121.26 178.00 C 119.04 180.43 116.29 182.55 112.95 183.06 C 107.66 184.24 101.27 180.89 100.81 175.12 C 100.08 167.23 100.69 159.28 100.48 151.37 Z" />
</g>
<g id="#ffffffff">
<path fill="#ffffff" opacity="1.00" d=" M 64.50 48.21 C 66.52 48.14 68.54 48.13 70.56 48.19 C 76.19 62.46 82.13 76.61 87.88 90.84 C 85.88 90.83 83.88 90.83 81.88 90.83 C 80.09 86.37 78.47 81.85 76.70 77.38 C 70.69 77.34 64.68 77.37 58.68 77.37 C 57.01 81.82 55.45 86.31 53.81 90.77 C 51.95 90.80 50.09 90.83 48.23 90.85 C 53.57 76.61 59.19 62.46 64.50 48.21 M 67.21 52.44 C 65.88 59.39 62.84 65.82 60.46 72.44 C 65.22 72.48 69.98 72.51 74.74 72.42 C 72.12 65.80 69.83 59.06 67.21 52.44 Z" />
<path fill="#ffffff" opacity="1.00" d=" M 92.61 48.11 C 95.37 48.12 98.12 48.13 100.88 48.19 C 104.90 60.40 109.05 72.57 113.18 84.74 C 117.84 72.70 121.61 60.31 125.93 48.13 C 128.42 48.13 130.92 48.13 133.41 48.12 C 133.46 62.36 133.47 76.60 133.40 90.84 C 131.68 90.83 129.97 90.83 128.25 90.82 C 128.11 78.86 128.49 66.89 128.05 54.93 C 123.23 66.66 119.70 78.89 115.35 90.81 C 113.77 90.82 112.20 90.83 110.62 90.84 C 106.27 78.89 102.73 66.62 97.96 54.84 C 97.62 66.82 97.97 78.82 97.77 90.81 C 96.07 90.82 94.36 90.83 92.65 90.83 C 92.52 76.59 92.59 62.35 92.61 48.11 Z" />
<path fill="#ffffff" opacity="1.00" d=" M 142.88 48.17 C 148.92 48.10 154.95 48.16 160.99 48.12 C 164.47 48.11 168.10 48.14 171.32 49.66 C 177.40 52.85 178.87 62.14 174.09 67.07 C 171.82 69.60 168.40 70.53 165.19 71.17 C 172.28 75.89 175.52 84.06 180.30 90.77 C 178.15 90.80 176.01 90.83 173.87 90.90 C 169.97 85.50 167.05 79.38 162.60 74.37 C 159.03 70.21 152.99 71.56 148.19 71.68 C 148.35 78.06 148.25 84.45 148.25 90.84 C 146.46 90.82 144.67 90.80 142.88 90.78 C 142.89 76.58 142.88 62.37 142.88 48.17 M 148.42 53.12 C 148.40 57.61 148.39 62.10 148.43 66.59 C 152.63 66.60 156.82 66.64 161.02 66.61 C 164.52 66.55 168.95 66.11 170.70 62.58 C 172.88 58.86 169.99 54.03 165.94 53.43 C 160.13 52.76 154.26 53.31 148.42 53.12 Z" />
<path fill="#ffffff" opacity="1.00" d=" M 53.39 115.45 C 92.91 115.13 132.45 115.44 171.97 115.30 C 174.38 115.38 177.26 115.02 179.12 116.92 C 180.91 118.38 181.29 120.81 181.25 122.99 C 181.17 149.35 181.32 175.71 181.17 202.07 C 181.26 205.85 177.64 208.63 174.00 208.23 C 134.34 208.23 94.67 208.24 55.01 208.22 C 51.51 208.54 48.05 205.72 48.18 202.10 C 48.07 175.72 48.18 149.34 48.13 122.96 C 47.67 119.56 49.71 115.73 53.39 115.45 M 63.84 139.60 C 63.90 153.88 63.84 168.16 63.88 182.44 C 66.68 182.48 69.48 182.48 72.28 182.46 C 72.45 175.80 71.91 169.10 72.58 162.46 C 72.92 158.25 77.90 155.50 81.62 157.49 C 84.04 158.70 83.89 161.70 84.09 163.99 C 84.22 170.14 84.13 176.30 84.10 182.45 C 86.84 182.48 89.58 182.48 92.33 182.47 C 92.18 174.65 92.64 166.81 92.09 159.01 C 91.78 153.93 86.84 150.40 81.97 150.58 C 78.18 150.35 74.91 152.53 72.26 154.99 C 72.29 149.84 72.28 144.68 72.28 139.52 C 69.47 139.45 66.65 139.48 63.84 139.60 M 137.07 139.51 C 137.11 153.83 137.12 168.14 137.06 182.46 C 139.58 182.47 142.10 182.48 144.62 182.48 C 144.62 181.01 144.62 179.54 144.63 178.08 C 148.12 182.58 154.65 184.91 159.84 181.91 C 167.25 177.99 168.47 168.26 166.76 160.84 C 165.65 154.95 160.06 150.20 153.98 150.58 C 150.56 150.51 147.71 152.59 145.23 154.69 C 145.34 149.63 145.28 144.57 145.30 139.52 C 142.55 139.49 139.81 139.49 137.07 139.51 M 100.48 151.37 C 100.69 159.28 100.08 167.23 100.81 175.12 C 101.27 180.89 107.66 184.24 112.95 183.06 C 116.29 182.55 119.04 180.43 121.26 178.00 C 121.24 179.48 121.21 180.97 121.20 182.46 C 123.74 182.48 126.29 182.48 128.83 182.46 C 128.79 172.09 128.82 161.73 128.82 151.36 C 126.06 151.32 123.29 151.33 120.53 151.40 C 120.43 158.13 120.83 164.90 120.28 171.62 C 119.97 176.88 111.19 179.23 109.30 173.85 C 108.19 166.42 109.04 158.84 108.79 151.35 C 106.02 151.33 103.25 151.33 100.48 151.37 Z" />
<path fill="#ffffff" opacity="1.00" d=" M 149.38 157.48 C 153.12 155.48 157.79 158.36 158.44 162.35 C 159.07 166.24 159.47 170.72 157.28 174.21 C 155.34 177.41 150.41 177.82 147.92 175.07 C 145.21 172.46 145.11 168.41 145.27 164.91 C 145.31 161.98 146.61 158.80 149.38 157.48 Z" />
</g>
</svg>
