<svg width="108" height="128" xmlns="http://www.w3.org/2000/svg">

 <g>
  <title>background</title>
  <rect fill="none" id="canvas_background" height="130" width="110" y="-1" x="-1"/>
 </g>
 <g>
  <title>Layer 1</title>
  <g stroke="null" id="svg_17">
   <path stroke="null" id="svg_4" d="m30.133967,69.809397c1.327385,-0.059852 2.659493,-0.074815 3.986877,-0.039901c0,2.573639 0.004724,5.147278 -0.009448,7.715929c1.251804,-1.226967 2.796483,-2.31428 4.586799,-2.199564c2.300485,-0.089778 4.634036,1.67087 4.780474,4.204608c0.259808,3.890385 0.042514,7.80072 0.113371,11.70108c-1.299042,0.004988 -2.59336,0.004988 -3.887678,-0.009975c0.014171,-3.067419 0.056685,-6.139825 -0.004724,-9.207244c-0.094476,-1.142177 -0.023619,-2.638479 -1.166776,-3.241987c-1.757249,-0.992547 -4.109696,0.379063 -4.270305,2.478873c-0.316494,3.311815 -0.061409,6.653555 -0.141714,9.975345c-1.322661,0.009975 -2.645322,0.009975 -3.967982,-0.009975c-0.018895,-7.122396 0.009448,-14.244793 -0.018895,-21.367189z" fill="#1ecd97"/>
   <path stroke="null" id="svg_5" d="m64.726269,69.764508c1.294318,-0.009975 2.588636,-0.009975 3.887678,0.004988c-0.009448,2.518775 0.018895,5.042537 -0.033067,7.566299c1.1715,-1.047411 2.517779,-2.084847 4.133315,-2.049933c2.872063,-0.189532 5.512661,2.179613 6.037002,5.117352c0.807768,3.700853 0.231466,8.553858 -3.268862,10.509026c-2.451646,1.496302 -5.53628,0.334174 -7.184882,-1.910279c-0.004724,0.7282 -0.004724,1.461388 -0.004724,2.194576c-1.190395,0 -2.380789,-0.004988 -3.571184,-0.009975c0.028343,-7.142347 0.023619,-14.279706 0.004724,-21.422054m5.814984,8.962848c-1.308489,0.658373 -1.922582,2.244453 -1.941477,3.705841c-0.075581,1.745685 -0.028343,3.765693 1.251804,5.067475c1.176223,1.37161 3.505051,1.167115 4.421466,-0.42894c1.03451,-1.740698 0.845558,-3.975175 0.547959,-5.91538c-0.307046,-1.990081 -2.513055,-3.426531 -4.279752,-2.428997z" fill="#1ecd97"/>
   <path stroke="null" id="svg_6" d="m47.441928,75.679887c1.308489,-0.019951 2.616979,-0.019951 3.925468,-0.009975c0.118095,3.735767 -0.283427,7.516423 0.240913,11.222263c0.892796,2.683368 5.040282,1.511265 5.18672,-1.112251c0.259808,-3.351716 0.070857,-6.72837 0.118095,-10.085074c1.303766,-0.034914 2.612255,-0.039901 3.916021,-0.019951c0,5.172216 -0.014171,10.339445 0.004724,15.511662c-1.199842,0.009975 -2.404408,0.009975 -3.604251,0c0.004724,-0.743163 0.018895,-1.486326 0.028343,-2.224502c-1.048681,1.212004 -2.347723,2.269391 -3.925468,2.523762c-2.498884,0.588545 -5.517385,-1.082325 -5.734679,-3.960212c-0.344837,-3.935274 -0.056685,-7.900473 -0.155885,-11.845722z" fill="#1ecd97"/>
   <path stroke="null" id="svg_11" d="m70.541253,78.727355c1.766697,-0.997535 3.972706,0.438915 4.279752,2.428997c0.297599,1.940205 0.48655,4.174682 -0.547959,5.91538c-0.916415,1.596055 -3.245243,1.80055 -4.421466,0.42894c-1.280147,-1.301783 -1.327385,-3.32179 -1.251804,-5.067475c0.018895,-1.461388 0.632988,-3.047468 1.941477,-3.705841z" fill="#ffffff"/>
   <g stroke="null" id="svg_15">
    <g stroke="null" id="svg_13">
     <path stroke="null" id="svg_7" d="m30.605866,24.227057c0.954205,-0.034914 1.908411,-0.039901 2.862616,-0.009975c2.659493,7.117409 5.465423,14.174965 8.181602,21.272423c-0.944758,-0.004988 -1.889515,-0.004988 -2.834273,-0.004988c-0.845558,-2.224502 -1.610812,-4.47893 -2.446922,-6.70842c-2.838997,-0.019951 -5.677994,-0.004988 -8.512267,-0.004988c-0.788873,2.219514 -1.525784,4.458979 -2.300485,6.683481c-0.878625,0.014963 -1.757249,0.029926 -2.635874,0.039901c2.522503,-7.102446 5.177272,-14.160002 7.685604,-21.267436m1.280147,2.109785c-0.628264,3.466432 -2.064296,6.673506 -3.188557,9.975345c2.248523,0.019951 4.497047,0.034914 6.74557,-0.009975c-1.237633,-3.301839 -2.31938,-6.663531 -3.557013,-9.96537z" fill="#ffffff"/>
     <path stroke="null" id="svg_8" d="m43.884435,24.177181c1.303766,0.004988 2.602807,0.009975 3.906573,0.039901c1.898963,6.089948 3.859335,12.159946 5.81026,18.229943c2.201285,-6.005158 3.982154,-12.184884 6.02283,-18.259869c1.176223,0 2.35717,0 3.533394,-0.004988c0.023619,7.102446 0.028343,14.204891 -0.004724,21.307337c-0.812492,-0.004988 -1.620259,-0.004988 -2.432751,-0.009975c-0.066133,-5.965256 0.113371,-11.9355 -0.094476,-17.900757c-2.276866,5.85054 -3.944363,11.950463 -5.999211,17.895769c-0.746359,0.004988 -1.487993,0.009975 -2.234352,0.014963c-2.054848,-5.960269 -3.727069,-12.080143 -5.980316,-17.955621c-0.160609,5.975232 0.004724,11.960439 -0.089752,17.940658c-0.803044,0.004988 -1.610812,0.009975 -2.41858,0.009975c-0.061409,-7.102446 -0.028343,-14.204891 -0.018895,-21.307337z" fill="#ffffff"/>
     <path stroke="null" id="svg_9" d="m67.630919,24.207107c2.853168,-0.034914 5.701613,-0.004988 8.554781,-0.024938c1.643878,-0.004988 3.358614,0.009975 4.879673,0.768102c2.872063,1.591068 3.56646,6.224615 1.308489,8.683538c-1.0723,1.261881 -2.687836,1.725735 -4.204172,2.044946c3.349166,2.354181 4.879673,6.42911 7.137644,9.775838c-1.015615,0.014963 -2.026505,0.029926 -3.037396,0.06484c-1.842277,-2.693343 -3.221624,-5.745799 -5.32371,-8.244623c-1.686392,-2.074872 -4.539561,-1.401536 -6.806979,-1.341684c0.075581,3.182135 0.028343,6.369258 0.028343,9.556381c-0.845558,-0.009975 -1.691116,-0.019951 -2.536674,-0.029926c0.004724,-7.082495 0,-14.169978 0,-21.252473m2.616979,2.468898c-0.009448,2.239465 -0.014171,4.47893 0.004724,6.718395c1.983991,0.004988 3.963258,0.024938 5.94725,0.009975c1.653326,-0.029926 3.745964,-0.249384 4.572627,-2.010032c1.029786,-1.855414 -0.335389,-4.26446 -2.248523,-4.56372c-2.744521,-0.334174 -5.517385,-0.059852 -8.276077,-0.154618z" fill="#ffffff"/>
     <g stroke="null" id="svg_12">
      <path stroke="null" id="svg_1" d="m49.666352,1.064306c3.590079,-1.416499 7.765908,-1.062374 11.07256,0.992547c13.760396,8.424179 27.568029,16.75858 41.314253,25.207697c3.571184,2.159662 5.729955,6.274492 6.25902,10.509026l0,52.46034c-0.519617,4.244509 -2.697283,8.37929 -6.273191,10.54394c-13.637577,8.394253 -27.341287,16.658826 -40.993036,25.033128c-3.97743,2.578627 -9.27752,2.728257 -13.311636,0.204495c-13.765119,-8.404228 -27.563305,-16.75858 -41.30953,-25.197722c-3.561736,-2.16465 -5.744127,-6.249554 -6.287362,-10.4791l0,-52.590019c0.529064,-4.224559 2.702007,-8.334401 6.263743,-10.489075c12.94318,-7.955338 25.938322,-15.810922 38.895674,-23.741321c1.431308,-0.862867 2.820102,-1.830476 4.369504,-2.453935m-19.060486,23.162751c-2.508332,7.107433 -5.163101,14.16499 -7.685604,21.267436c0.878625,-0.009975 1.757249,-0.024938 2.635874,-0.039901c0.774701,-2.224502 1.511612,-4.463967 2.300485,-6.683481c2.834273,0 5.67327,-0.014963 8.512267,0.004988c0.836111,2.22949 1.601364,4.483918 2.446922,6.70842c0.944758,0 1.889515,0 2.834273,0.004988c-2.716178,-7.097458 -5.522109,-14.155015 -8.181602,-21.272423c-0.954205,-0.029926 -1.908411,-0.024938 -2.862616,0.009975m13.278569,-0.049877c-0.009448,7.102446 -0.042514,14.204891 0.018895,21.307337c0.807768,0 1.615536,-0.004988 2.41858,-0.009975c0.094476,-5.980219 -0.070857,-11.965426 0.089752,-17.940658c2.253247,5.875478 3.925468,11.995352 5.980316,17.955621c0.746359,-0.004988 1.487993,-0.009975 2.234352,-0.014963c2.054848,-5.945306 3.722345,-12.045229 5.999211,-17.895769c0.207847,5.965256 0.028343,11.9355 0.094476,17.900757c0.812492,0.004988 1.620259,0.004988 2.432751,0.009975c0.033067,-7.102446 0.028343,-14.204891 0.004724,-21.307337c-1.176223,0.004988 -2.35717,0.004988 -3.533394,0.004988c-2.040677,6.074985 -3.821545,12.254711 -6.02283,18.259869c-1.950925,-6.069997 -3.911297,-12.139995 -5.81026,-18.229943c-1.303766,-0.029926 -2.602807,-0.034914 -3.906573,-0.039901m23.746484,0.029926c0,7.082495 0.004724,14.169978 0,21.252473c0.845558,0.009975 1.691116,0.019951 2.536674,0.029926c0,-3.187123 0.047238,-6.374246 -0.028343,-9.556381c2.267418,-0.059852 5.120587,-0.733188 6.806979,1.341684c2.102086,2.498824 3.481432,5.55128 5.32371,8.244623c1.010891,-0.034914 2.021781,-0.049877 3.037396,-0.06484c-2.257971,-3.346728 -3.788478,-7.421657 -7.137644,-9.775838c1.516336,-0.319211 3.131872,-0.783065 4.204172,-2.044946c2.257971,-2.458923 1.563574,-7.09247 -1.308489,-8.683538c-1.52106,-0.758126 -3.235795,-0.773089 -4.879673,-0.768102c-2.853168,0.019951 -5.701613,-0.009975 -8.554781,0.024938m-42.273182,33.557061c-1.738354,0.139655 -2.702007,2.049933 -2.484713,3.745742c0.023619,13.15748 -0.028343,26.31496 0.023619,39.472441c-0.061409,1.805537 1.573022,3.212061 3.226347,3.052456c18.734545,0.009975 37.473813,0.004988 56.208358,0.004988c1.719459,0.199507 3.42947,-1.187066 3.386956,-3.072406c0.070857,-13.147505 0,-26.29501 0.03779,-39.442514c0.018895,-1.087313 -0.160609,-2.299317 -1.006167,-3.027517c-0.878625,-0.947658 -2.239076,-0.768102 -3.377509,-0.808003c-18.668412,0.069827 -37.346271,-0.08479 -56.014683,0.074815z" fill="#1ecd97"/>
      <path stroke="null" id="svg_3" d="m70.247898,26.676004c2.758692,0.094766 5.531556,-0.179556 8.276077,0.154618c1.913134,0.29926 3.278309,2.708306 2.248523,4.56372c-0.826663,1.760648 -2.919301,1.980106 -4.572627,2.010032c-1.983991,0.014963 -3.963258,-0.004988 -5.94725,-0.009975c-0.018895,-2.239465 -0.014171,-4.47893 -0.004724,-6.718395z" fill="#1ecd97"/>
     </g>
    </g>
    <g stroke="null" id="svg_14">
     <path stroke="null" id="svg_2" d="m31.725884,26.336843c1.237633,3.301839 2.31938,6.663531 3.557013,9.96537c-2.248523,0.044889 -4.497047,0.029926 -6.74557,0.009975c1.124262,-3.301839 2.560293,-6.508913 3.188557,-9.975345z" fill="#1ecd97"/>
     <path stroke="null" id="svg_10" d="m25.197608,57.764167c18.668412,-0.159606 37.346271,-0.004988 56.014683,-0.074815c1.138433,0.039901 2.498884,-0.139655 3.377509,0.808003c0.845558,0.7282 1.025062,1.940205 1.006167,3.027517c-0.03779,13.147505 0.033067,26.29501 -0.03779,39.442514c0.042514,1.88534 -1.667497,3.271913 -3.386956,3.072406c-18.734545,0 -37.473813,0.004988 -56.208358,-0.004988c-1.653326,0.159606 -3.287757,-1.246918 -3.226347,-3.052456c-0.051962,-13.15748 0,-26.31496 -0.023619,-39.472441c-0.217294,-1.695809 0.746359,-3.606087 2.484713,-3.745742m4.936359,12.045229c0.028343,7.122396 0,14.244793 0.018895,21.367189c1.322661,0.019951 2.645322,0.019951 3.967982,0.009975c0.080304,-3.32179 -0.17478,-6.663531 0.141714,-9.975345c0.160609,-2.09981 2.513055,-3.47142 4.270305,-2.478873c1.143157,0.603508 1.0723,2.09981 1.166776,3.241987c0.061409,3.067419 0.018895,6.139825 0.004724,9.207244c1.294318,0.014963 2.588636,0.014963 3.887678,0.009975c-0.070857,-3.90036 0.146437,-7.810695 -0.113371,-11.70108c-0.146437,-2.533738 -2.479989,-4.294386 -4.780474,-4.204608c-1.790316,-0.114716 -3.334995,0.972596 -4.586799,2.199564c0.014171,-2.568651 0.009448,-5.14229 0.009448,-7.715929c-1.327385,-0.034914 -2.659493,-0.019951 -3.986877,0.039901m34.592302,-0.044889c0.018895,7.142347 0.023619,14.279706 -0.004724,21.422054c1.190395,0.004988 2.380789,0.009975 3.571184,0.009975c0,-0.733188 0,-1.466376 0.004724,-2.194576c1.648602,2.244453 4.733236,3.40658 7.184882,1.910279c3.500327,-1.955168 4.076629,-6.808173 3.268862,-10.509026c-0.524341,-2.937739 -3.164938,-5.306884 -6.037002,-5.117352c-1.615536,-0.034914 -2.961815,1.002522 -4.133315,2.049933c0.051962,-2.523762 0.023619,-5.047525 0.033067,-7.566299c-1.299042,-0.014963 -2.59336,-0.014963 -3.887678,-0.004988m-17.284342,5.91538c0.0992,3.945249 -0.188952,7.910449 0.155885,11.845722c0.217294,2.877887 3.235795,4.548757 5.734679,3.960212c1.577745,-0.254371 2.876787,-1.311758 3.925468,-2.523762c-0.009448,0.738176 -0.023619,1.481339 -0.028343,2.224502c1.199842,0.009975 2.404408,0.009975 3.604251,0c-0.018895,-5.172216 -0.004724,-10.339445 -0.004724,-15.511662c-1.303766,-0.019951 -2.612255,-0.014963 -3.916021,0.019951c-0.047238,3.356704 0.141714,6.733358 -0.118095,10.085074c-0.146437,2.623516 -4.293924,3.795619 -5.18672,1.112251c-0.524341,-3.705841 -0.122818,-7.486496 -0.240913,-11.222263c-1.308489,-0.009975 -2.616979,-0.009975 -3.925468,0.009975z" fill="#ffffff"/>
    </g>
   </g>
  </g>
 </g>
</svg>