<svg width="54" height="64" xmlns="http://www.w3.org/2000/svg">

 <g>
  <title>background</title>
  <rect fill="none" id="canvas_background" height="66" width="56" y="-1" x="-1"/>
 </g>
 <g>
  <title>Layer 1</title>
  <g stroke="null" id="svg_17">
   <path stroke="null" id="svg_4" d="m15.014938,34.838434c0.66443,-0.029959 1.331224,-0.037449 1.995654,-0.019973c0,1.28825 0.002365,2.576499 -0.004729,3.862253c0.626598,-0.614166 1.399795,-1.158426 2.295948,-1.101004c1.151521,-0.044939 2.319593,0.836364 2.392894,2.104641c0.130049,1.947354 0.021281,3.904695 0.056748,5.857042c-0.650243,0.002497 -1.298121,0.002497 -1.945999,-0.004993c0.007094,-1.535414 0.028374,-3.073324 -0.002365,-4.608738c-0.04729,-0.571723 -0.011823,-1.320706 -0.584036,-1.622795c-0.879601,-0.496825 -2.057132,0.189742 -2.137525,1.240814c-0.158423,1.657748 -0.030739,3.330475 -0.070936,4.993216c-0.662065,0.004993 -1.324131,0.004993 -1.986196,-0.004993c-0.009458,-3.565156 0.004729,-7.130312 -0.009458,-10.695469z" fill="#1ecd97"/>
   <path stroke="null" id="svg_5" d="m32.330313,34.815965c0.647878,-0.004993 1.295757,-0.004993 1.945999,0.002497c-0.004729,1.260787 0.009458,2.524071 -0.016552,3.787354c0.586401,-0.524288 1.260289,-1.043582 2.068954,-1.026106c1.437628,-0.094871 2.759394,1.091018 3.021856,2.56152c0.404333,1.852483 0.115861,4.281683 -1.636247,5.260353c-1.227186,0.748982 -2.771217,0.167273 -3.596434,-0.956201c-0.002365,0.364505 -0.002365,0.731506 -0.002365,1.098508c-0.595859,0 -1.191718,-0.002497 -1.787577,-0.004993c0.014187,-3.575143 0.011823,-7.147789 0.002365,-10.722931m2.910723,4.486405c-0.654972,0.329552 -0.962359,1.123474 -0.971817,1.85498c-0.037832,0.873813 -0.014187,1.884939 0.626598,2.536554c0.588765,0.686567 1.754473,0.584206 2.21319,-0.214708c0.51783,-0.871316 0.423249,-1.989797 0.274284,-2.960977c-0.153694,-0.996147 -1.257924,-1.71517 -2.142254,-1.215848z" fill="#1ecd97"/>
   <path stroke="null" id="svg_6" d="m23.678536,37.776942c0.654972,-0.009986 1.309944,-0.009986 1.964916,-0.004993c0.059113,1.869959 -0.141871,3.762388 0.12059,5.617368c0.446894,1.343175 2.522942,0.756472 2.596242,-0.556744c0.130049,-1.677721 0.035468,-3.367924 0.059113,-5.048141c0.652607,-0.017476 1.307579,-0.019973 1.960187,-0.009986c0,2.588983 -0.007094,5.175468 0.002365,7.764451c-0.600588,0.004993 -1.20354,0.004993 -1.804128,0c0.002365,-0.371995 0.009458,-0.743989 0.014187,-1.113487c-0.524923,0.606676 -1.175166,1.135957 -1.964916,1.263284c-1.250831,0.2946 -2.761759,-0.541764 -2.870526,-1.982307c-0.17261,-1.969824 -0.028374,-3.954627 -0.078029,-5.929444z" fill="#1ecd97"/>
   <path stroke="null" id="svg_11" d="m35.241036,39.302369c0.88433,-0.499322 1.988561,0.219702 2.142254,1.215848c0.148965,0.971181 0.243545,2.089661 -0.274284,2.960977c-0.458717,0.798915 -1.624425,0.901275 -2.21319,0.214708c-0.640785,-0.651615 -0.66443,-1.662741 -0.626598,-2.536554c0.009458,-0.731506 0.316846,-1.525427 0.971817,-1.85498z" fill="#ffffff"/>
   <g stroke="null" id="svg_15">
    <g stroke="null" id="svg_13">
     <path stroke="null" id="svg_7" d="m15.251149,12.021934c0.477633,-0.017476 0.955266,-0.019973 1.432899,-0.004993c1.331224,3.56266 2.735749,7.09536 4.095347,10.648033c-0.472904,-0.002497 -0.945808,-0.002497 -1.418712,-0.002497c-0.423249,-1.113487 -0.806301,-2.241954 -1.224821,-3.357938c-1.421076,-0.009986 -2.842152,-0.002497 -4.260864,-0.002497c-0.394875,1.110991 -0.76374,2.231968 -1.151521,3.345455c-0.439801,0.00749 -0.879601,0.01498 -1.319402,0.019973c1.262653,-3.55517 2.591513,-7.08787 3.847073,-10.645537m0.640785,1.056065c-0.314481,1.735143 -1.033295,3.340462 -1.596051,4.993216c1.125511,0.009986 2.251022,0.017476 3.376534,-0.004993c-0.619504,-1.652755 -1.160979,-3.335468 -1.780483,-4.988223z" fill="#ffffff"/>
     <path stroke="null" id="svg_8" d="m21.897813,11.996967c0.652607,0.002497 1.30285,0.004993 1.955457,0.019973c0.950537,3.048358 1.931812,6.08673 2.908359,9.125102c1.101866,-3.005916 1.99329,-6.099213 3.014762,-9.140082c0.588765,0 1.179895,0 1.76866,-0.002497c0.011823,3.55517 0.014187,7.11034 -0.002365,10.665509c-0.406697,-0.002497 -0.81103,-0.002497 -1.217727,-0.004993c-0.033103,-2.985943 0.056748,-5.974383 -0.04729,-8.960326c-1.139698,2.928521 -1.974374,5.981873 -3.00294,8.95783c-0.373594,0.002497 -0.744824,0.004993 -1.118418,0.00749c-1.028566,-2.983447 -1.865606,-6.046785 -2.993481,-8.987789c-0.080394,2.990936 0.002365,5.986866 -0.044926,8.980299c-0.401968,0.002497 -0.806301,0.004993 -1.210634,0.004993c-0.030739,-3.55517 -0.014187,-7.11034 -0.009458,-10.665509z" fill="#ffffff"/>
     <path stroke="null" id="svg_9" d="m33.784252,12.011947c1.42817,-0.017476 2.853975,-0.002497 4.282144,-0.012483c0.822853,-0.002497 1.681173,0.004993 2.442548,0.384478c1.437628,0.796418 1.785212,3.115767 0.654972,4.346595c-0.536746,0.631642 -1.345411,0.863826 -2.104422,1.023609c1.676444,1.178399 2.442548,3.218128 3.572789,4.893352c-0.508372,0.00749 -1.014379,0.01498 -1.520386,0.032456c-0.922163,-1.348168 -1.612602,-2.876092 -2.664813,-4.126893c-0.844133,-1.038589 -2.272303,-0.701547 -3.407272,-0.671588c0.037832,1.592836 0.014187,3.188168 0.014187,4.783501c-0.423249,-0.004993 -0.846498,-0.009986 -1.269747,-0.01498c0.002365,-3.545183 0,-7.092863 0,-10.638047m1.309944,1.235821c-0.004729,1.120977 -0.007094,2.241954 0.002365,3.362931c0.993098,0.002497 1.983832,0.012483 2.97693,0.004993c0.827582,-0.01498 1.875064,-0.12483 2.288855,-1.006133c0.515465,-0.928738 -0.167881,-2.1346 -1.125511,-2.284396c-1.373786,-0.167273 -2.761759,-0.029959 -4.142638,-0.077395z" fill="#ffffff"/>
     <g stroke="null" id="svg_12">
      <path stroke="null" id="svg_1" d="m24.791985,0.427686c1.797035,-0.709037 3.88727,-0.531778 5.542433,0.496825c6.887845,4.216771 13.799335,8.388603 20.680086,12.617857c1.787577,1.081031 2.868162,3.140733 3.132988,5.260353l0,26.259323c-0.260097,2.124613 -1.350141,4.194301 -3.140082,5.277829c-6.826367,4.201791 -13.685838,8.338671 -20.519298,12.530476c-1.990925,1.290746 -4.643916,1.365645 -6.663215,0.102361c-6.890209,-4.206785 -13.79697,-8.388603 -20.677721,-12.612864c-1.782848,-1.083528 -2.875255,-3.12825 -3.147175,-5.245373l0,-26.324235c0.264826,-2.114627 1.352505,-4.171832 3.135353,-5.250367c6.478783,-3.98209 12.983575,-7.914247 19.469452,-11.883854c0.716449,-0.431913 1.411618,-0.916255 2.18718,-1.228331m-9.540835,11.594248c-1.25556,3.557666 -2.58442,7.090367 -3.847073,10.645537c0.439801,-0.004993 0.879601,-0.012483 1.319402,-0.019973c0.387781,-1.113487 0.756646,-2.234464 1.151521,-3.345455c1.418712,0 2.839788,-0.00749 4.260864,0.002497c0.41852,1.115984 0.801572,2.244451 1.224821,3.357938c0.472904,0 0.945808,0 1.418712,0.002497c-1.359599,-3.552673 -2.764123,-7.085374 -4.095347,-10.648033c-0.477633,-0.01498 -0.955266,-0.012483 -1.432899,0.004993m6.646664,-0.024966c-0.004729,3.55517 -0.021281,7.11034 0.009458,10.665509c0.404333,0 0.808666,-0.002497 1.210634,-0.004993c0.04729,-2.993433 -0.035468,-5.989363 0.044926,-8.980299c1.127876,2.941004 1.964916,6.004342 2.993481,8.987789c0.373594,-0.002497 0.744824,-0.004993 1.118418,-0.00749c1.028566,-2.975957 1.863241,-6.029308 3.00294,-8.95783c0.104039,2.985943 0.014187,5.974383 0.04729,8.960326c0.406697,0.002497 0.81103,0.002497 1.217727,0.004993c0.016552,-3.55517 0.014187,-7.11034 0.002365,-10.665509c-0.588765,0.002497 -1.179895,0.002497 -1.76866,0.002497c-1.021472,3.040869 -1.912896,6.134166 -3.014762,9.140082c-0.976546,-3.038372 -1.957822,-6.076744 -2.908359,-9.125102c-0.652607,-0.01498 -1.30285,-0.017476 -1.955457,-0.019973m11.886439,0.01498c0,3.545183 0.002365,7.092863 0,10.638047c0.423249,0.004993 0.846498,0.009986 1.269747,0.01498c0,-1.595333 0.023645,-3.190665 -0.014187,-4.783501c1.134969,-0.029959 2.563139,-0.367001 3.407272,0.671588c1.052211,1.250801 1.742651,2.778725 2.664813,4.126893c0.506007,-0.017476 1.012014,-0.024966 1.520386,-0.032456c-1.13024,-1.675224 -1.896344,-3.714953 -3.572789,-4.893352c0.759011,-0.159783 1.567676,-0.391967 2.104422,-1.023609c1.13024,-1.230828 0.782656,-3.550177 -0.654972,-4.346595c-0.761375,-0.379484 -1.619696,-0.386974 -2.442548,-0.384478c-1.42817,0.009986 -2.853975,-0.004993 -4.282144,0.012483m-21.160083,16.797179c-0.870143,0.069905 -1.352505,1.026106 -1.243737,1.874953c0.011823,6.586052 -0.014187,13.172104 0.011823,19.758156c-0.030739,0.903772 0.787385,1.607816 1.614967,1.527924c9.377684,0.004993 18.757732,0.002497 28.135415,0.002497c0.860685,0.099864 1.716641,-0.594193 1.69536,-1.537911c0.035468,-6.581059 0,-13.162117 0.018916,-19.743176c0.009458,-0.544261 -0.080394,-1.150936 -0.503643,-1.515441c-0.439801,-0.474356 -1.120782,-0.384478 -1.690631,-0.40445c-9.34458,0.034953 -18.69389,-0.042442 -28.03847,0.037449z" fill="#1ecd97"/>
      <path stroke="null" id="svg_3" d="m35.094195,13.247768c1.380879,0.047436 2.768852,-0.089878 4.142638,0.077395c0.95763,0.149796 1.640976,1.355658 1.125511,2.284396c-0.413791,0.881303 -1.461273,0.991153 -2.288855,1.006133c-0.993098,0.00749 -1.983832,-0.002497 -2.97693,-0.004993c-0.009458,-1.120977 -0.007094,-2.241954 -0.002365,-3.362931z" fill="#1ecd97"/>
     </g>
    </g>
    <g stroke="null" id="svg_14">
     <path stroke="null" id="svg_2" d="m15.811781,13.077999c0.619504,1.652755 1.160979,3.335468 1.780483,4.988223c-1.125511,0.022469 -2.251022,0.01498 -3.376534,0.004993c0.562756,-1.652755 1.281569,-3.258073 1.596051,-4.993216z" fill="#1ecd97"/>
     <path stroke="null" id="svg_10" d="m12.544015,28.809126c9.34458,-0.079891 18.69389,-0.002497 28.03847,-0.037449c0.569849,0.019973 1.250831,-0.069905 1.690631,0.40445c0.423249,0.364505 0.513101,0.971181 0.503643,1.515441c-0.018916,6.581059 0.016552,13.162117 -0.018916,19.743176c0.021281,0.943718 -0.834675,1.637775 -1.69536,1.537911c-9.377684,0 -18.757732,0.002497 -28.135415,-0.002497c-0.827582,0.079891 -1.645705,-0.624152 -1.614967,-1.527924c-0.02601,-6.586052 0,-13.172104 -0.011823,-19.758156c-0.108768,-0.848847 0.373594,-1.805048 1.243737,-1.874953m2.470923,6.029308c0.014187,3.565156 0,7.130312 0.009458,10.695469c0.662065,0.009986 1.324131,0.009986 1.986196,0.004993c0.040197,-1.662741 -0.087487,-3.335468 0.070936,-4.993216c0.080394,-1.051072 1.257924,-1.737639 2.137525,-1.240814c0.572214,0.30209 0.536746,1.051072 0.584036,1.622795c0.030739,1.535414 0.009458,3.073324 0.002365,4.608738c0.647878,0.00749 1.295757,0.00749 1.945999,0.004993c-0.035468,-1.952347 0.0733,-3.909688 -0.056748,-5.857042c-0.0733,-1.268277 -1.241373,-2.14958 -2.392894,-2.104641c-0.896153,-0.057422 -1.669351,0.486839 -2.295948,1.101004c0.007094,-1.285753 0.004729,-2.574003 0.004729,-3.862253c-0.66443,-0.017476 -1.331224,-0.009986 -1.995654,0.019973m17.315375,-0.022469c0.009458,3.575143 0.011823,7.147789 -0.002365,10.722931c0.595859,0.002497 1.191718,0.004993 1.787577,0.004993c0,-0.367001 0,-0.734003 0.002365,-1.098508c0.825217,1.123474 2.369248,1.705183 3.596434,0.956201c1.752109,-0.97867 2.04058,-3.40787 1.636247,-5.260353c-0.262462,-1.470502 -1.584228,-2.656391 -3.021856,-2.56152c-0.808666,-0.017476 -1.482554,0.501818 -2.068954,1.026106c0.02601,-1.263284 0.011823,-2.526567 0.016552,-3.787354c-0.650243,-0.00749 -1.298121,-0.00749 -1.945999,-0.002497m-8.651776,2.960977c0.049655,1.974817 -0.094581,3.95962 0.078029,5.929444c0.108768,1.440543 1.619696,2.276907 2.870526,1.982307c0.789749,-0.127327 1.439992,-0.656608 1.964916,-1.263284c-0.004729,0.369498 -0.011823,0.741493 -0.014187,1.113487c0.600588,0.004993 1.20354,0.004993 1.804128,0c-0.009458,-2.588983 -0.002365,-5.175468 -0.002365,-7.764451c-0.652607,-0.009986 -1.307579,-0.00749 -1.960187,0.009986c-0.023645,1.680217 0.070936,3.370421 -0.059113,5.048141c-0.0733,1.313216 -2.149348,1.899919 -2.596242,0.556744c-0.262462,-1.85498 -0.061478,-3.747409 -0.12059,-5.617368c-0.654972,-0.004993 -1.309944,-0.004993 -1.964916,0.004993z" fill="#ffffff"/>
    </g>
   </g>
  </g>
 </g>
</svg>