<?xml version="1.0" encoding="UTF-8" standalone="no"?>
<svg width="66px" height="86px" viewBox="0 0 66 86" version="1.1" xmlns="http://www.w3.org/2000/svg" xmlns:xlink="http://www.w3.org/1999/xlink" xmlns:sketch="http://www.bohemiancoding.com/sketch/ns">
    <!-- Generator: Sketch Beta 3.0.4 (8156) - http://www.bohemiancoding.com/sketch -->
    <title>plane</title>
    <desc>Created with Sketch Beta.</desc>
    <defs></defs>
    <g id="Page-1" stroke="none" stroke-width="1" fill="none" fill-rule="evenodd" sketch:type="MSPage">
        <g id="plane" sketch:type="MSLayerGroup" transform="translate(0.000000, 1.000000)">
            <g class="rocket" id="rocket-2" transform="translate(0,10)" sketch:type="MSShapeGroup">
                <g class="rocket-body">
                   <path fill="#2161ff" opacity="1.00" d=" M 45.40 0.00 L 48.63 0.00 C 56.57 0.70 63.25 7.41 64.00 15.33 L 64.00 18.48 C 63.46 22.39 61.78 26.15 58.94 28.93 C 48.99 38.97 38.97 48.93 28.95 58.91 C 26.20 61.75 22.46 63.42 18.58 64.00 L 15.35 64.00 C 7.43 63.27 0.73 56.59 0.00 48.67 L 0.00 45.42 C 0.53 38.82 5.64 34.34 10.08 30.05 C 18.38 21.68 26.75 13.37 35.10 5.04 C 37.82 2.21 41.55 0.57 45.40 0.00 M 38.81 7.77 C 34.13 12.40 29.31 16.93 24.91 21.82 C 30.73 27.50 36.50 33.24 42.18 39.07 C 46.94 34.93 51.18 30.18 55.72 25.78 C 60.37 21.39 60.76 13.39 56.34 8.70 C 52.09 3.58 43.59 3.12 38.81 7.77 M 21.40 25.48 C 16.24 30.22 11.29 35.25 6.59 40.45 C 6.56 40.49 6.50 40.58 6.47 40.62 L 5.56 42.41 C 5.54 42.45 5.50 42.54 5.48 42.59 C 4.43 45.38 4.46 48.62 5.41 51.44 C 5.43 51.49 5.47 51.60 5.50 51.65 L 6.36 53.40 C 6.39 53.45 6.45 53.55 6.48 53.60 C 7.48 55.17 8.82 56.51 10.38 57.52 C 10.43 57.55 10.54 57.61 10.59 57.64 L 12.40 58.52 C 12.45 58.54 12.54 58.58 12.59 58.60 C 15.40 59.65 18.63 59.60 21.42 58.50 C 21.47 58.48 21.57 58.43 21.62 58.41 L 23.32 57.56 C 23.36 57.53 23.45 57.47 23.50 57.44 C 28.69 52.67 33.85 47.81 38.55 42.56 C 38.62 42.46 38.75 42.25 38.82 42.15 C 33.14 36.50 27.52 30.80 21.81 25.18 C 21.71 25.25 21.50 25.40 21.40 25.48 Z" />
                    <path fill="#a6c7ff" opacity="1.00" d=" M 38.81 7.77 C 43.59 3.12 52.09 3.58 56.34 8.70 C 60.76 13.39 60.37 21.39 55.72 25.78 C 51.18 30.18 46.94 34.93 42.18 39.07 C 36.50 33.24 30.73 27.50 24.91 21.82 C 29.31 16.93 34.13 12.40 38.81 7.77 M 49.43 9.37 C 47.33 12.27 52.64 13.94 52.24 16.99 C 52.93 19.83 48.65 21.89 50.55 24.57 C 52.49 26.21 54.55 24.16 55.38 22.41 C 58.29 17.79 56.36 10.22 50.95 8.64 C 50.57 8.82 49.81 9.19 49.43 9.37 Z" />
                    <path fill="#a6c7ff" opacity="1.00" d=" M 21.40 25.48 C 21.50 25.40 21.71 25.25 21.81 25.18 L 21.40 25.48 Z" />
                    <path fill="#a6c7ff" opacity="1.00" d=" M 6.47 40.62 C 6.50 40.58 6.56 40.49 6.59 40.45 C 6.56 40.49 6.50 40.58 6.47 40.62 Z" />
                    <path fill="#a6c7ff" opacity="1.00" d=" M 5.48 42.59 C 5.50 42.54 5.54 42.45 5.56 42.41 C 5.54 42.45 5.50 42.54 5.48 42.59 Z" />
                    <path fill="#a6c7ff" opacity="1.00" d=" M 38.82 42.15 C 38.75 42.25 38.62 42.46 38.55 42.56 L 38.82 42.15 Z" />
                    <path fill="#a6c7ff" opacity="1.00" d=" M 5.41 51.44 C 5.43 51.49 5.47 51.60 5.50 51.65 C 5.47 51.60 5.43 51.49 5.41 51.44 Z" />
                    <path fill="#a6c7ff" opacity="1.00" d=" M 6.36 53.40 C 6.39 53.45 6.45 53.55 6.48 53.60 C 6.45 53.55 6.39 53.45 6.36 53.40 Z" />
                    <path fill="#a6c7ff" opacity="1.00" d=" M 10.38 57.52 C 10.43 57.55 10.54 57.61 10.59 57.64 C 10.54 57.61 10.43 57.55 10.38 57.52 Z" />
                    <path fill="#a6c7ff" opacity="1.00" d=" M 23.32 57.56 C 23.36 57.53 23.45 57.47 23.50 57.44 C 23.45 57.47 23.36 57.53 23.32 57.56 Z" />
                    <path fill="#a6c7ff" opacity="1.00" d=" M 12.40 58.52 C 12.45 58.54 12.54 58.58 12.59 58.60 C 12.54 58.58 12.45 58.54 12.40 58.52 Z" />
                    <path fill="#a6c7ff" opacity="1.00" d=" M 21.42 58.50 C 21.47 58.48 21.57 58.43 21.62 58.41 C 21.57 58.43 21.47 58.48 21.42 58.50 Z" />
                    <path fill="#ffffff" opacity="1.00" d=" M 49.43 9.37 C 49.81 9.19 50.57 8.82 50.95 8.64 C 56.36 10.22 58.29 17.79 55.38 22.41 C 54.55 24.16 52.49 26.21 50.55 24.57 C 48.65 21.89 52.93 19.83 52.24 16.99 C 52.64 13.94 47.33 12.27 49.43 9.37 Z" />
                    <path fill="#ffffff" opacity="1.00" d=" M 6.59 40.45 C 11.29 35.25 16.24 30.22 21.40 25.48 L 21.81 25.18 C 27.52 30.80 33.14 36.50 38.82 42.15 L 38.55 42.56 C 33.85 47.81 28.69 52.67 23.50 57.44 C 23.45 57.47 23.36 57.53 23.32 57.56 L 21.62 58.41 C 21.57 58.43 21.47 58.48 21.42 58.50 C 18.63 59.60 15.40 59.65 12.59 58.60 C 12.54 58.58 12.45 58.54 12.40 58.52 L 10.59 57.64 C 10.54 57.61 10.43 57.55 10.38 57.52 C 8.82 56.51 7.48 55.17 6.48 53.60 C 6.45 53.55 6.39 53.45 6.36 53.40 L 5.50 51.65 C 5.47 51.60 5.43 51.49 5.41 51.44 C 4.46 48.62 4.43 45.38 5.48 42.59 C 5.50 42.54 5.54 42.45 5.56 42.41 L 6.47 40.62 C 6.50 40.58 6.56 40.49 6.59 40.45 Z" />
                </g>
            </g>
            <g class="rocket" id="rocket-1" transform="translate(45,10)" sketch:type="MSShapeGroup">
                <g class="rocket-body">
                    <path fill="#dc143c" opacity="1.00" d=" M 14.97 0.00 L 18.29 0.00 C 22.26 0.46 26.08 2.15 28.89 5.03 C 38.94 15.05 49.02 25.05 59.00 35.13 C 61.74 37.82 63.33 41.43 64.00 45.17 L 64.00 48.43 C 63.40 56.49 56.57 63.34 48.51 64.00 L 45.74 64.00 C 41.76 63.53 37.92 61.85 35.10 58.96 C 25.05 48.96 15.03 38.94 5.04 28.89 C 2.19 26.13 0.53 22.37 0.00 18.47 L 0.00 15.26 C 0.76 7.48 7.24 0.97 14.97 0.00 M 4.58 18.00 C 4.77 21.99 7.45 25.15 10.23 27.75 C 14.08 31.51 17.81 35.39 21.69 39.12 C 27.53 33.34 33.32 27.50 39.12 21.68 C 34.87 17.29 30.51 13.03 26.21 8.70 C 23.59 5.95 19.85 4.21 16.01 4.56 C 9.34 4.85 3.78 11.36 4.58 18.00 M 42.35 24.99 C 36.55 30.77 30.77 36.60 24.94 42.36 C 30.13 47.46 35.15 52.76 40.63 57.53 C 40.67 57.55 40.73 57.59 40.76 57.61 L 42.27 58.39 C 42.30 58.41 42.37 58.44 42.41 58.45 C 45.29 59.64 48.63 59.64 51.54 58.54 C 51.58 58.53 51.65 58.50 51.69 58.48 L 53.31 57.69 C 53.35 57.67 53.42 57.63 53.45 57.61 C 55.14 56.57 56.56 55.15 57.60 53.46 C 57.62 53.43 57.66 53.36 57.68 53.32 L 58.46 51.76 C 58.47 51.72 58.51 51.65 58.52 51.61 C 59.62 48.72 59.60 45.35 58.43 42.48 C 58.42 42.44 58.38 42.37 58.37 42.33 L 57.54 40.73 C 57.52 40.69 57.48 40.63 57.46 40.60 C 52.82 35.04 47.37 30.20 42.35 24.99 Z" />
                    <path fill="#fa8072" opacity="1.00" d=" M 4.58 18.00 C 3.78 11.36 9.34 4.85 16.01 4.56 C 19.85 4.21 23.59 5.95 26.21 8.70 C 30.51 13.03 34.87 17.29 39.12 21.68 C 33.32 27.50 27.53 33.34 21.69 39.12 C 17.81 35.39 14.08 31.51 10.23 27.75 C 7.45 25.15 4.77 21.99 4.58 18.00 M 10.40 24.64 C 11.79 26.24 14.87 24.22 13.85 22.30 C 12.78 20.37 11.09 18.35 11.94 15.98 C 12.27 13.60 15.50 12.67 15.13 10.11 C 14.60 9.67 13.54 8.79 13.00 8.34 C 6.73 10.91 5.29 20.22 10.40 24.64 Z" />
                    <path fill="#fa8072" opacity="1.00" d=" M 57.46 40.60 C 57.48 40.63 57.52 40.69 57.54 40.73 C 57.52 40.69 57.48 40.63 57.46 40.60 Z" />
                    <path fill="#fa8072" opacity="1.00" d=" M 58.37 42.33 C 58.38 42.37 58.42 42.44 58.43 42.48 C 58.42 42.44 58.38 42.37 58.37 42.33 Z" />
                    <path fill="#fa8072" opacity="1.00" d=" M 58.46 51.76 C 58.47 51.72 58.51 51.65 58.52 51.61 C 58.51 51.65 58.47 51.72 58.46 51.76 Z" />
                    <path fill="#fa8072" opacity="1.00" d=" M 57.60 53.46 C 57.62 53.43 57.66 53.36 57.68 53.32 C 57.66 53.36 57.62 53.43 57.60 53.46 Z" />
                    <path fill="#fa8072" opacity="1.00" d=" M 40.63 57.53 C 40.67 57.55 40.73 57.59 40.76 57.61 C 40.73 57.59 40.67 57.55 40.63 57.53 Z" />
                    <path fill="#fa8072" opacity="1.00" d=" M 53.31 57.69 C 53.35 57.67 53.42 57.63 53.45 57.61 C 53.42 57.63 53.35 57.67 53.31 57.69 Z" />
                    <path fill="#fa8072" opacity="1.00" d=" M 42.27 58.39 C 42.30 58.41 42.37 58.44 42.41 58.45 C 42.37 58.44 42.30 58.41 42.27 58.39 Z" />
                    <path fill="#fa8072" opacity="1.00" d=" M 51.54 58.54 C 51.58 58.53 51.65 58.50 51.69 58.48 C 51.65 58.50 51.58 58.53 51.54 58.54 Z" />
                    <path fill="#ffffff" opacity="1.00" d=" M 10.40 24.64 C 5.29 20.22 6.73 10.91 13.00 8.34 C 13.54 8.79 14.60 9.67 15.13 10.11 C 15.50 12.67 12.27 13.60 11.94 15.98 C 11.09 18.35 12.78 20.37 13.85 22.30 C 14.87 24.22 11.79 26.24 10.40 24.64 Z" />
                    <path fill="#ffffff" opacity="1.00" d=" M 42.35 24.99 C 47.37 30.20 52.82 35.04 57.46 40.60 C 57.48 40.63 57.52 40.69 57.54 40.73 L 58.37 42.33 C 58.38 42.37 58.42 42.44 58.43 42.48 C 59.60 45.35 59.62 48.72 58.52 51.61 C 58.51 51.65 58.47 51.72 58.46 51.76 L 57.68 53.32 C 57.66 53.36 57.62 53.43 57.60 53.46 C 56.56 55.15 55.14 56.57 53.45 57.61 C 53.42 57.63 53.35 57.67 53.31 57.69 L 51.69 58.48 C 51.65 58.50 51.58 58.53 51.54 58.54 C 48.63 59.64 45.29 59.64 42.41 58.45 C 42.37 58.44 42.30 58.41 42.27 58.39 L 40.76 57.61 C 40.73 57.59 40.67 57.55 40.63 57.53 C 35.15 52.76 30.13 47.46 24.94 42.36 C 30.77 36.60 36.55 30.77 42.35 24.99 Z" />
                </g>
            </g>
            <g id="planebody" sketch:type="MSShapeGroup" >
                <path fill="#1ecd97" opacity="1.00" d=" M 0.00 31.62 C 18.32 21.06 36.54 10.29 55.02 0.01 C 73.51 10.24 91.72 21.01 110.00 31.60 L 110.00 95.30 C 91.68 105.88 73.46 116.65 55.01 126.99 C 36.58 116.58 18.37 105.79 0.00 95.27 L 0.00 31.62 M 6.75 35.39 C 6.68 54.19 6.67 72.99 6.71 91.79 C 22.81 101.07 38.83 110.48 54.98 119.68 C 71.09 110.48 87.13 101.13 103.19 91.83 C 103.18 73.00 103.28 54.17 103.14 35.34 C 87.04 26.01 71.11 16.39 54.88 7.30 C 38.82 16.64 22.80 26.03 6.75 35.39 Z" />
                <path fill="#1ecd97" opacity="1.00" d=" M 15.16 55.60 C 18.01 47.98 20.86 40.35 23.74 32.73 C 26.29 32.73 28.84 32.73 31.38 32.73 C 34.27 40.34 37.13 47.97 39.96 55.60 C 37.52 55.60 35.07 55.60 32.63 55.59 C 32.23 54.32 31.84 53.05 31.43 51.79 C 28.79 51.80 26.14 51.80 23.50 51.79 C 23.11 53.06 22.73 54.32 22.34 55.59 C 19.94 55.60 17.55 55.60 15.16 55.60 M 27.48 38.69 C 26.64 41.41 25.81 44.14 24.99 46.87 C 26.66 46.87 28.33 46.87 29.99 46.87 C 29.17 44.14 28.34 41.41 27.48 38.69 Z" />
                <path fill="#1ecd97" opacity="1.00" d=" M 42.13 32.74 C 45.21 32.73 48.30 32.73 51.38 32.73 C 52.59 37.29 53.70 41.87 54.96 46.42 C 56.25 41.88 57.32 37.28 58.55 32.73 C 61.62 32.73 64.69 32.73 67.76 32.74 C 67.76 40.36 67.76 47.98 67.76 55.60 C 65.84 55.60 63.94 55.60 62.03 55.61 C 61.98 49.84 62.12 44.08 61.82 38.32 C 60.56 44.12 59.00 49.85 57.54 55.60 C 55.81 55.60 54.08 55.60 52.35 55.60 C 50.87 49.91 49.49 44.20 47.94 38.53 C 47.85 44.22 47.91 49.91 47.89 55.60 C 45.97 55.60 44.05 55.59 42.13 55.59 C 42.13 47.98 42.12 40.36 42.13 32.74 Z" />
                <path fill="#1ecd97" opacity="1.00" d=" M 72.34 55.60 C 72.34 47.98 72.31 40.35 72.35 32.73 C 78.04 33.01 83.90 32.05 89.46 33.49 C 94.87 35.72 93.46 44.59 87.73 45.44 C 91.53 47.57 92.72 52.04 94.75 55.59 C 92.09 55.60 89.44 55.60 86.79 55.59 C 84.50 52.35 83.84 47.11 79.50 46.00 C 79.39 49.19 79.39 52.39 79.41 55.59 C 77.05 55.60 74.69 55.60 72.34 55.60 M 79.42 37.27 C 79.41 38.87 79.40 40.47 79.40 42.07 C 81.54 41.71 85.15 42.71 85.85 39.87 C 85.86 36.50 81.61 37.58 79.42 37.27 Z" />
                <path fill="#1ecd97" opacity="1.00" d=" M 17.50 95.47 C 17.48 87.84 17.49 80.22 17.50 72.60 C 19.84 72.60 22.19 72.60 24.53 72.60 C 24.53 75.27 24.53 77.93 24.54 80.59 C 27.10 80.60 29.66 80.60 32.23 80.59 C 32.23 77.93 32.23 75.26 32.23 72.60 C 34.58 72.60 36.94 72.60 39.30 72.60 C 39.31 80.22 39.30 87.84 39.30 95.47 C 36.94 95.47 34.58 95.46 32.23 95.46 C 32.23 92.37 32.23 89.29 32.22 86.20 C 29.66 86.20 27.10 86.20 24.54 86.20 C 24.54 89.29 24.53 92.38 24.52 95.47 C 22.18 95.47 19.84 95.47 17.50 95.47 Z" />
                <path fill="#1ecd97" opacity="1.00" d=" M 44.03 72.60 C 46.37 72.60 48.70 72.60 51.04 72.60 C 51.20 77.73 50.74 82.89 51.28 87.99 C 51.96 91.47 58.23 91.36 58.65 87.77 C 59.11 82.73 58.70 77.65 58.85 72.60 C 61.19 72.60 63.52 72.60 65.86 72.60 C 65.77 77.66 66.07 82.73 65.72 87.79 C 65.43 91.31 62.86 94.63 59.34 95.40 C 56.56 96.03 53.64 95.94 50.85 95.43 C 47.30 94.87 44.57 91.65 44.24 88.13 C 43.76 82.97 44.14 77.77 44.03 72.60 Z" />
                <path fill="#1ecd97" opacity="1.00" d=" M 70.58 72.60 C 76.00 72.84 81.53 72.04 86.88 73.11 C 91.53 74.51 91.77 81.53 87.24 83.32 C 92.83 84.44 93.00 92.93 87.82 94.70 C 82.18 96.06 76.32 95.26 70.58 95.46 C 70.57 87.84 70.57 80.22 70.58 72.60 M 77.67 77.23 C 77.68 78.35 77.69 80.57 77.69 81.69 C 79.87 81.34 84.10 82.40 83.70 78.88 C 82.72 76.47 79.68 77.53 77.67 77.23 M 77.69 85.89 C 77.68 87.45 77.68 89.02 77.68 90.58 C 79.98 90.27 84.60 91.52 84.58 87.91 C 83.76 84.95 79.91 86.26 77.69 85.89 Z" />
                <path fill="#ffffff" opacity="1.00" d=" M 6.75 35.39 C 22.80 26.03 38.82 16.64 54.88 7.30 C 71.11 16.39 87.04 26.01 103.14 35.34 C 103.28 54.17 103.18 73.00 103.19 91.83 C 87.13 101.13 71.09 110.48 54.98 119.68 C 38.83 110.48 22.81 101.07 6.71 91.79 C 6.67 72.99 6.68 54.19 6.75 35.39 M 15.16 55.60 C 17.55 55.60 19.94 55.60 22.34 55.59 C 22.73 54.32 23.11 53.06 23.50 51.79 C 26.14 51.80 28.79 51.80 31.43 51.79 C 31.84 53.05 32.23 54.32 32.63 55.59 C 35.07 55.60 37.52 55.60 39.96 55.60 C 37.13 47.97 34.27 40.34 31.38 32.73 C 28.84 32.73 26.29 32.73 23.74 32.73 C 20.86 40.35 18.01 47.98 15.16 55.60 M 42.13 32.74 C 42.12 40.36 42.13 47.98 42.13 55.59 C 44.05 55.59 45.97 55.60 47.89 55.60 C 47.91 49.91 47.85 44.22 47.94 38.53 C 49.49 44.20 50.87 49.91 52.35 55.60 C 54.08 55.60 55.81 55.60 57.54 55.60 C 59.00 49.85 60.56 44.12 61.82 38.32 C 62.12 44.08 61.98 49.84 62.03 55.61 C 63.94 55.60 65.84 55.60 67.76 55.60 C 67.76 47.98 67.76 40.36 67.76 32.74 C 64.69 32.73 61.62 32.73 58.55 32.73 C 57.32 37.28 56.25 41.88 54.96 46.42 C 53.70 41.87 52.59 37.29 51.38 32.73 C 48.30 32.73 45.21 32.73 42.13 32.74 M 72.34 55.60 C 74.69 55.60 77.05 55.60 79.41 55.59 C 79.39 52.39 79.39 49.19 79.50 46.00 C 83.84 47.11 84.50 52.35 86.79 55.59 C 89.44 55.60 92.09 55.60 94.75 55.59 C 92.72 52.04 91.53 47.57 87.73 45.44 C 93.46 44.59 94.87 35.72 89.46 33.49 C 83.90 32.05 78.04 33.01 72.35 32.73 C 72.31 40.35 72.34 47.98 72.34 55.60 M 17.50 95.47 C 19.84 95.47 22.18 95.47 24.52 95.47 C 24.53 92.38 24.54 89.29 24.54 86.20 C 27.10 86.20 29.66 86.20 32.22 86.20 C 32.23 89.29 32.23 92.37 32.23 95.46 C 34.58 95.46 36.94 95.47 39.30 95.47 C 39.30 87.84 39.31 80.22 39.30 72.60 C 36.94 72.60 34.58 72.60 32.23 72.60 C 32.23 75.26 32.23 77.93 32.23 80.59 C 29.66 80.60 27.10 80.60 24.54 80.59 C 24.53 77.93 24.53 75.27 24.53 72.60 C 22.19 72.60 19.84 72.60 17.50 72.60 C 17.49 80.22 17.48 87.84 17.50 95.47 M 44.03 72.60 C 44.14 77.77 43.76 82.97 44.24 88.13 C 44.57 91.65 47.30 94.87 50.85 95.43 C 53.64 95.94 56.56 96.03 59.34 95.40 C 62.86 94.63 65.43 91.31 65.72 87.79 C 66.07 82.73 65.77 77.66 65.86 72.60 C 63.52 72.60 61.19 72.60 58.85 72.60 C 58.70 77.65 59.11 82.73 58.65 87.77 C 58.23 91.36 51.96 91.47 51.28 87.99 C 50.74 82.89 51.20 77.73 51.04 72.60 C 48.70 72.60 46.37 72.60 44.03 72.60 M 70.58 72.60 C 70.57 80.22 70.57 87.84 70.58 95.46 C 76.32 95.26 82.18 96.06 87.82 94.70 C 93.00 92.93 92.83 84.44 87.24 83.32 C 91.77 81.53 91.53 74.51 86.88 73.11 C 81.53 72.04 76.00 72.84 70.58 72.60 Z" />
                <path fill="#ffffff" opacity="1.00" d=" M 79.42 37.27 C 81.61 37.58 85.86 36.50 85.85 39.87 C 85.15 42.71 81.54 41.71 79.40 42.07 C 79.40 40.47 79.41 38.87 79.42 37.27 Z" />
                <path fill="#ffffff" opacity="1.00" d=" M 27.48 38.69 C 28.34 41.41 29.17 44.14 29.99 46.87 C 28.33 46.87 26.66 46.87 24.99 46.87 C 25.81 44.14 26.64 41.41 27.48 38.69 Z" />
                <path fill="#ffffff" opacity="1.00" d=" M 77.67 77.23 C 79.68 77.53 82.72 76.47 83.70 78.88 C 84.10 82.40 79.87 81.34 77.69 81.69 C 77.69 80.57 77.68 78.35 77.67 77.23 Z" />
                <path fill="#ffffff" opacity="1.00" d=" M 77.69 85.89 C 79.91 86.26 83.76 84.95 84.58 87.91 C 84.60 91.52 79.98 90.27 77.68 90.58 C 77.68 89.02 77.68 87.45 77.69 85.89 Z" />
            </g>
        </g>
    </g>
</svg>