<?xml version="1.0" encoding="UTF-8" standalone="no"?>
<svg width="66px" height="86px" viewBox="0 0 66 86" version="1.1" xmlns="http://www.w3.org/2000/svg" xmlns:xlink="http://www.w3.org/1999/xlink" xmlns:sketch="http://www.bohemiancoding.com/sketch/ns">
    <!-- Generator: Sketch Beta 3.0.4 (8156) - http://www.bohemiancoding.com/sketch -->
    <title>plane</title>
    <desc>Created with Sketch Beta.</desc>
    <defs></defs>
    <g id="Page-1" stroke="none" stroke-width="1" fill="none" fill-rule="evenodd" sketch:type="MSPage">
        <g id="plane" sketch:type="MSLayerGroup" transform="translate(0.000000, 1.000000)">
            <g class="rocket" id="rocket-3" transform="translate(70, 15)" sketch:type="MSShapeGroup">
                <g class="rocket-body">
                    <g transform="rotate(20 23.968751907348636,23.968751907348633) " stroke="null" id="svg_7">
                        <ellipse stroke="null" ry="23.968753" rx="23.968753" id="svg_6" cy="23.968753" cx="23.968753" stroke-opacity="null" stroke-width="null" fill="#007f3f"/>
                        <path stroke="null" id="svg_2" d="m23.150126,5.297274c1.102922,-0.234824 2.303271,0.009993 3.206344,0.69323c1.020484,0.740694 1.645015,1.986009 1.621283,3.247563c0.001249,9.285531 0.001249,18.572311 0.001249,27.859092c-0.004996,0.658256 0.036223,1.320259 -0.036223,1.977266c-0.147389,1.23907 -0.938046,2.370721 -2.034723,2.956531c-1.1991,0.670747 -2.749187,0.649513 -3.929551,-0.051212c-0.904321,-0.517112 -1.57257,-1.410192 -1.848613,-2.410691c-0.206095,-0.764426 -0.13365,-1.565075 -0.143642,-2.346989c0.003747,-8.909563 0.006245,-17.820376 0.007494,-26.729939c0.007494,-0.683237 -0.041219,-1.373969 0.074944,-2.050961c0.276043,-1.537596 1.555083,-2.827878 3.081437,-3.14389m0.503372,2.62428c-0.584561,0.142393 -1.017986,0.715713 -0.996752,1.31901c-0.001249,9.743937 -0.002498,19.489123 0.002498,29.23306c-0.0662,1.030477 1.240319,1.752435 2.068448,1.125405c0.729453,-0.45341 0.593305,-1.396452 0.592056,-2.127154c-0.009993,-9.410437 0.001249,-18.822124 -0.003747,-28.232561c0.046215,-0.851861 -0.83937,-1.563826 -1.662502,-1.317761z" fill="#007f3f"/>
                        <path stroke="null" id="svg_3" d="m22.541832,2.57182c4.301772,-0.286035 8.682234,0.756932 12.379459,2.979014c3.373718,2.022232 6.170369,4.997499 7.985257,8.488629c1.608793,3.09143 2.430676,6.585058 2.394453,10.067444c-0.054959,4.22433 -1.378965,8.429923 -3.804645,11.893574c-2.588058,3.723456 -6.378963,6.616284 -10.690727,8.043963c-3.346239,1.139145 -6.979762,1.433924 -10.460899,0.811891c-4.360477,-0.740694 -8.463648,-2.892829 -11.557576,-6.054206c-2.659254,-2.680488 -4.575316,-6.086682 -5.488381,-9.750182c-1.056707,-4.166873 -0.805645,-8.653506 0.710717,-12.675487c1.503871,-4.040717 4.274292,-7.599297 7.825377,-10.04621c3.138894,-2.194603 6.88858,-3.493628 10.706964,-3.758429m0.608293,2.725455c-1.526354,0.316013 -2.805395,1.606294 -3.081437,3.14389c-0.116163,0.676992 -0.067449,1.367724 -0.074944,2.050961c-0.001249,8.909563 -0.003747,17.820376 -0.007494,26.729939c0.009993,0.781913 -0.062453,1.582562 0.143642,2.346989c0.276043,1.000499 0.944291,1.893579 1.848613,2.410691c1.180364,0.700724 2.730451,0.721958 3.929551,0.051212c1.096677,-0.58581 1.887334,-1.717461 2.034723,-2.956531c0.072446,-0.657007 0.031227,-1.31901 0.036223,-1.977266c0,-9.28678 0,-18.57356 -0.001249,-27.859092c0.023732,-1.261553 -0.600799,-2.506869 -1.621283,-3.247563c-0.903072,-0.683237 -2.103421,-0.928053 -3.206344,-0.69323z" fill="#aaffd4"/>
                        <path stroke="null" id="svg_4" d="m23.653498,7.921555c0.823132,-0.246065 1.708718,0.4659 1.662502,1.317761c0.004996,9.410437 -0.006245,18.822124 0.003747,28.232561c0.001249,0.730702 0.137397,1.673744 -0.592056,2.127154c-0.828128,0.627029 -2.134648,-0.094929 -2.068448,-1.125405c-0.004996,-9.743937 -0.003747,-19.489123 -0.002498,-29.23306c-0.021234,-0.603297 0.412191,-1.176617 0.996752,-1.31901z" fill="#aaffd4"/>
                    </g>
                </g>
            </g>
            <g class="rocket" id="rocket-4" transform="translate(45, 15)" sketch:type="MSShapeGroup">
                <g class="rocket-body">
                    <g transform="rotate(-50 15.895844459533695,15.791678428649908) " id="svg_8">
                        <ellipse stroke="null" ry="15.895844" rx="15.895844" id="svg_6" cy="15.791678" cx="15.895844" stroke-opacity="null" stroke-width="null" fill="#ff7f00"/>
                        <path stroke="null" id="svg_2" d="m15.352939,3.513101c0.731447,-0.155733 1.527507,0.006627 2.126416,0.459743c0.676775,0.491221 1.090958,1.317102 1.075219,2.153752c0.000828,6.158074 0.000828,12.316977 0.000828,18.475879c-0.003313,0.436549 0.024023,0.875583 -0.024023,1.311304c-0.097747,0.821739 -0.622103,1.572239 -1.349409,1.960743c-0.795232,0.444833 -1.823234,0.43075 -2.60604,-0.033963c-0.599737,-0.342944 -1.042913,-0.935225 -1.225982,-1.598747c-0.13668,-0.50696 -0.088635,-1.037943 -0.095262,-1.5565c0.002485,-5.908736 0.004142,-11.8183 0.00497,-17.727036c0.00497,-0.453116 -0.027336,-0.911203 0.049702,-1.360177c0.183069,-1.019719 1.031316,-1.875421 2.043579,-2.084998m0.333832,1.740397c-0.387675,0.094434 -0.675118,0.474654 -0.661036,0.874755c-0.000828,6.462085 -0.001657,12.924998 0.001657,19.387082c-0.043903,0.683402 0.822568,1.162198 1.371774,0.746358c0.483766,-0.300697 0.393474,-0.926113 0.392646,-1.410708c-0.006627,-6.240911 0.000828,-12.48265 -0.002485,-18.723561c0.03065,-0.564946 -0.556662,-1.037114 -1.102555,-0.873926z" fill="#ff7f00"/>
                        <path stroke="null" id="svg_3" d="m14.949525,1.705606c2.852893,-0.189696 5.757973,0.50199 8.209937,1.975653c2.237417,1.341125 4.092129,3.314293 5.295745,5.629577c1.066936,2.050206 1.612001,4.367147 1.587978,6.676631c-0.036448,2.801534 -0.914516,5.590643 -2.523203,7.887703c-1.716375,2.46936 -4.230466,4.387856 -7.089986,5.334678c-2.219193,0.75547 -4.62891,0.950964 -6.937567,0.538438c-2.891826,-0.491221 -5.613009,-1.918496 -7.664872,-4.015091c-1.763592,-1.777674 -3.034305,-4.036628 -3.639841,-6.466226c-0.700798,-2.76343 -0.534296,-5.738921 0.47134,-8.40626c0.997353,-2.679765 2.834669,-5.03978 5.189714,-6.662549c2.081684,-1.455439 4.56844,-2.31694 7.100755,-2.492554m0.403414,1.807495c-1.012263,0.209577 -1.86051,1.065279 -2.043579,2.084998c-0.077038,0.448974 -0.044732,0.907061 -0.049702,1.360177c-0.000828,5.908736 -0.002485,11.8183 -0.00497,17.727036c0.006627,0.518557 -0.041418,1.04954 0.095262,1.5565c0.183069,0.663521 0.626245,1.255803 1.225982,1.598747c0.782806,0.464713 1.810808,0.478796 2.60604,0.033963c0.727306,-0.388504 1.251661,-1.139004 1.349409,-1.960743c0.048045,-0.435721 0.020709,-0.874755 0.024023,-1.311304c0,-6.158903 0,-12.317805 -0.000828,-18.475879c0.015739,-0.83665 -0.398444,-1.662531 -1.075219,-2.153752c-0.598909,-0.453116 -1.394969,-0.615476 -2.126416,-0.459743z" fill="#ffffaa"/>
                        <path stroke="null" id="svg_4" d="m15.686771,5.253498c0.545893,-0.163188 1.133205,0.308981 1.102555,0.873926c0.003313,6.240911 -0.004142,12.48265 0.002485,18.723561c0.000828,0.484594 0.09112,1.110011 -0.392646,1.410708c-0.549207,0.41584 -1.415678,-0.062956 -1.371774,-0.746358c-0.003313,-6.462085 -0.002485,-12.924998 -0.001657,-19.387082c-0.014082,-0.400101 0.273361,-0.780321 0.661036,-0.874755z" fill="#ffffaa"/>
                    </g>
                </g>
            </g>
            <g class="rocket" id="rocket-2" transform="translate(25,20)" sketch:type="MSShapeGroup">
                <g class="rocket-body">
                   <path fill="#2161ff" opacity="1.00" d=" M 45.40 0.00 L 48.63 0.00 C 56.57 0.70 63.25 7.41 64.00 15.33 L 64.00 18.48 C 63.46 22.39 61.78 26.15 58.94 28.93 C 48.99 38.97 38.97 48.93 28.95 58.91 C 26.20 61.75 22.46 63.42 18.58 64.00 L 15.35 64.00 C 7.43 63.27 0.73 56.59 0.00 48.67 L 0.00 45.42 C 0.53 38.82 5.64 34.34 10.08 30.05 C 18.38 21.68 26.75 13.37 35.10 5.04 C 37.82 2.21 41.55 0.57 45.40 0.00 M 38.81 7.77 C 34.13 12.40 29.31 16.93 24.91 21.82 C 30.73 27.50 36.50 33.24 42.18 39.07 C 46.94 34.93 51.18 30.18 55.72 25.78 C 60.37 21.39 60.76 13.39 56.34 8.70 C 52.09 3.58 43.59 3.12 38.81 7.77 M 21.40 25.48 C 16.24 30.22 11.29 35.25 6.59 40.45 C 6.56 40.49 6.50 40.58 6.47 40.62 L 5.56 42.41 C 5.54 42.45 5.50 42.54 5.48 42.59 C 4.43 45.38 4.46 48.62 5.41 51.44 C 5.43 51.49 5.47 51.60 5.50 51.65 L 6.36 53.40 C 6.39 53.45 6.45 53.55 6.48 53.60 C 7.48 55.17 8.82 56.51 10.38 57.52 C 10.43 57.55 10.54 57.61 10.59 57.64 L 12.40 58.52 C 12.45 58.54 12.54 58.58 12.59 58.60 C 15.40 59.65 18.63 59.60 21.42 58.50 C 21.47 58.48 21.57 58.43 21.62 58.41 L 23.32 57.56 C 23.36 57.53 23.45 57.47 23.50 57.44 C 28.69 52.67 33.85 47.81 38.55 42.56 C 38.62 42.46 38.75 42.25 38.82 42.15 C 33.14 36.50 27.52 30.80 21.81 25.18 C 21.71 25.25 21.50 25.40 21.40 25.48 Z" />
                    <path fill="#a6c7ff" opacity="1.00" d=" M 38.81 7.77 C 43.59 3.12 52.09 3.58 56.34 8.70 C 60.76 13.39 60.37 21.39 55.72 25.78 C 51.18 30.18 46.94 34.93 42.18 39.07 C 36.50 33.24 30.73 27.50 24.91 21.82 C 29.31 16.93 34.13 12.40 38.81 7.77 M 49.43 9.37 C 47.33 12.27 52.64 13.94 52.24 16.99 C 52.93 19.83 48.65 21.89 50.55 24.57 C 52.49 26.21 54.55 24.16 55.38 22.41 C 58.29 17.79 56.36 10.22 50.95 8.64 C 50.57 8.82 49.81 9.19 49.43 9.37 Z" />
                    <path fill="#a6c7ff" opacity="1.00" d=" M 21.40 25.48 C 21.50 25.40 21.71 25.25 21.81 25.18 L 21.40 25.48 Z" />
                    <path fill="#a6c7ff" opacity="1.00" d=" M 6.47 40.62 C 6.50 40.58 6.56 40.49 6.59 40.45 C 6.56 40.49 6.50 40.58 6.47 40.62 Z" />
                    <path fill="#a6c7ff" opacity="1.00" d=" M 5.48 42.59 C 5.50 42.54 5.54 42.45 5.56 42.41 C 5.54 42.45 5.50 42.54 5.48 42.59 Z" />
                    <path fill="#a6c7ff" opacity="1.00" d=" M 38.82 42.15 C 38.75 42.25 38.62 42.46 38.55 42.56 L 38.82 42.15 Z" />
                    <path fill="#a6c7ff" opacity="1.00" d=" M 5.41 51.44 C 5.43 51.49 5.47 51.60 5.50 51.65 C 5.47 51.60 5.43 51.49 5.41 51.44 Z" />
                    <path fill="#a6c7ff" opacity="1.00" d=" M 6.36 53.40 C 6.39 53.45 6.45 53.55 6.48 53.60 C 6.45 53.55 6.39 53.45 6.36 53.40 Z" />
                    <path fill="#a6c7ff" opacity="1.00" d=" M 10.38 57.52 C 10.43 57.55 10.54 57.61 10.59 57.64 C 10.54 57.61 10.43 57.55 10.38 57.52 Z" />
                    <path fill="#a6c7ff" opacity="1.00" d=" M 23.32 57.56 C 23.36 57.53 23.45 57.47 23.50 57.44 C 23.45 57.47 23.36 57.53 23.32 57.56 Z" />
                    <path fill="#a6c7ff" opacity="1.00" d=" M 12.40 58.52 C 12.45 58.54 12.54 58.58 12.59 58.60 C 12.54 58.58 12.45 58.54 12.40 58.52 Z" />
                    <path fill="#a6c7ff" opacity="1.00" d=" M 21.42 58.50 C 21.47 58.48 21.57 58.43 21.62 58.41 C 21.57 58.43 21.47 58.48 21.42 58.50 Z" />
                    <path fill="#ffffff" opacity="1.00" d=" M 49.43 9.37 C 49.81 9.19 50.57 8.82 50.95 8.64 C 56.36 10.22 58.29 17.79 55.38 22.41 C 54.55 24.16 52.49 26.21 50.55 24.57 C 48.65 21.89 52.93 19.83 52.24 16.99 C 52.64 13.94 47.33 12.27 49.43 9.37 Z" />
                    <path fill="#ffffff" opacity="1.00" d=" M 6.59 40.45 C 11.29 35.25 16.24 30.22 21.40 25.48 L 21.81 25.18 C 27.52 30.80 33.14 36.50 38.82 42.15 L 38.55 42.56 C 33.85 47.81 28.69 52.67 23.50 57.44 C 23.45 57.47 23.36 57.53 23.32 57.56 L 21.62 58.41 C 21.57 58.43 21.47 58.48 21.42 58.50 C 18.63 59.60 15.40 59.65 12.59 58.60 C 12.54 58.58 12.45 58.54 12.40 58.52 L 10.59 57.64 C 10.54 57.61 10.43 57.55 10.38 57.52 C 8.82 56.51 7.48 55.17 6.48 53.60 C 6.45 53.55 6.39 53.45 6.36 53.40 L 5.50 51.65 C 5.47 51.60 5.43 51.49 5.41 51.44 C 4.46 48.62 4.43 45.38 5.48 42.59 C 5.50 42.54 5.54 42.45 5.56 42.41 L 6.47 40.62 C 6.50 40.58 6.56 40.49 6.59 40.45 Z" />
                </g>
            </g>
            <g class="rocket" id="rocket-1" transform="translate(70,20)" sketch:type="MSShapeGroup">
                <g class="rocket-body">
                    <path fill="#dc143c" opacity="1.00" d=" M 14.97 0.00 L 18.29 0.00 C 22.26 0.46 26.08 2.15 28.89 5.03 C 38.94 15.05 49.02 25.05 59.00 35.13 C 61.74 37.82 63.33 41.43 64.00 45.17 L 64.00 48.43 C 63.40 56.49 56.57 63.34 48.51 64.00 L 45.74 64.00 C 41.76 63.53 37.92 61.85 35.10 58.96 C 25.05 48.96 15.03 38.94 5.04 28.89 C 2.19 26.13 0.53 22.37 0.00 18.47 L 0.00 15.26 C 0.76 7.48 7.24 0.97 14.97 0.00 M 4.58 18.00 C 4.77 21.99 7.45 25.15 10.23 27.75 C 14.08 31.51 17.81 35.39 21.69 39.12 C 27.53 33.34 33.32 27.50 39.12 21.68 C 34.87 17.29 30.51 13.03 26.21 8.70 C 23.59 5.95 19.85 4.21 16.01 4.56 C 9.34 4.85 3.78 11.36 4.58 18.00 M 42.35 24.99 C 36.55 30.77 30.77 36.60 24.94 42.36 C 30.13 47.46 35.15 52.76 40.63 57.53 C 40.67 57.55 40.73 57.59 40.76 57.61 L 42.27 58.39 C 42.30 58.41 42.37 58.44 42.41 58.45 C 45.29 59.64 48.63 59.64 51.54 58.54 C 51.58 58.53 51.65 58.50 51.69 58.48 L 53.31 57.69 C 53.35 57.67 53.42 57.63 53.45 57.61 C 55.14 56.57 56.56 55.15 57.60 53.46 C 57.62 53.43 57.66 53.36 57.68 53.32 L 58.46 51.76 C 58.47 51.72 58.51 51.65 58.52 51.61 C 59.62 48.72 59.60 45.35 58.43 42.48 C 58.42 42.44 58.38 42.37 58.37 42.33 L 57.54 40.73 C 57.52 40.69 57.48 40.63 57.46 40.60 C 52.82 35.04 47.37 30.20 42.35 24.99 Z" />
                    <path fill="#fa8072" opacity="1.00" d=" M 4.58 18.00 C 3.78 11.36 9.34 4.85 16.01 4.56 C 19.85 4.21 23.59 5.95 26.21 8.70 C 30.51 13.03 34.87 17.29 39.12 21.68 C 33.32 27.50 27.53 33.34 21.69 39.12 C 17.81 35.39 14.08 31.51 10.23 27.75 C 7.45 25.15 4.77 21.99 4.58 18.00 M 10.40 24.64 C 11.79 26.24 14.87 24.22 13.85 22.30 C 12.78 20.37 11.09 18.35 11.94 15.98 C 12.27 13.60 15.50 12.67 15.13 10.11 C 14.60 9.67 13.54 8.79 13.00 8.34 C 6.73 10.91 5.29 20.22 10.40 24.64 Z" />
                    <path fill="#fa8072" opacity="1.00" d=" M 57.46 40.60 C 57.48 40.63 57.52 40.69 57.54 40.73 C 57.52 40.69 57.48 40.63 57.46 40.60 Z" />
                    <path fill="#fa8072" opacity="1.00" d=" M 58.37 42.33 C 58.38 42.37 58.42 42.44 58.43 42.48 C 58.42 42.44 58.38 42.37 58.37 42.33 Z" />
                    <path fill="#fa8072" opacity="1.00" d=" M 58.46 51.76 C 58.47 51.72 58.51 51.65 58.52 51.61 C 58.51 51.65 58.47 51.72 58.46 51.76 Z" />
                    <path fill="#fa8072" opacity="1.00" d=" M 57.60 53.46 C 57.62 53.43 57.66 53.36 57.68 53.32 C 57.66 53.36 57.62 53.43 57.60 53.46 Z" />
                    <path fill="#fa8072" opacity="1.00" d=" M 40.63 57.53 C 40.67 57.55 40.73 57.59 40.76 57.61 C 40.73 57.59 40.67 57.55 40.63 57.53 Z" />
                    <path fill="#fa8072" opacity="1.00" d=" M 53.31 57.69 C 53.35 57.67 53.42 57.63 53.45 57.61 C 53.42 57.63 53.35 57.67 53.31 57.69 Z" />
                    <path fill="#fa8072" opacity="1.00" d=" M 42.27 58.39 C 42.30 58.41 42.37 58.44 42.41 58.45 C 42.37 58.44 42.30 58.41 42.27 58.39 Z" />
                    <path fill="#fa8072" opacity="1.00" d=" M 51.54 58.54 C 51.58 58.53 51.65 58.50 51.69 58.48 C 51.65 58.50 51.58 58.53 51.54 58.54 Z" />
                    <path fill="#ffffff" opacity="1.00" d=" M 10.40 24.64 C 5.29 20.22 6.73 10.91 13.00 8.34 C 13.54 8.79 14.60 9.67 15.13 10.11 C 15.50 12.67 12.27 13.60 11.94 15.98 C 11.09 18.35 12.78 20.37 13.85 22.30 C 14.87 24.22 11.79 26.24 10.40 24.64 Z" />
                    <path fill="#ffffff" opacity="1.00" d=" M 42.35 24.99 C 47.37 30.20 52.82 35.04 57.46 40.60 C 57.48 40.63 57.52 40.69 57.54 40.73 L 58.37 42.33 C 58.38 42.37 58.42 42.44 58.43 42.48 C 59.60 45.35 59.62 48.72 58.52 51.61 C 58.51 51.65 58.47 51.72 58.46 51.76 L 57.68 53.32 C 57.66 53.36 57.62 53.43 57.60 53.46 C 56.56 55.15 55.14 56.57 53.45 57.61 C 53.42 57.63 53.35 57.67 53.31 57.69 L 51.69 58.48 C 51.65 58.50 51.58 58.53 51.54 58.54 C 48.63 59.64 45.29 59.64 42.41 58.45 C 42.37 58.44 42.30 58.41 42.27 58.39 L 40.76 57.61 C 40.73 57.59 40.67 57.55 40.63 57.53 C 35.15 52.76 30.13 47.46 24.94 42.36 C 30.77 36.60 36.55 30.77 42.35 24.99 Z" />
                </g>
            </g>

            <g id="planebody" sketch:type="MSShapeGroup" transform="translate(25, 25)">
                <path d="M-22.85,11.59,14.81-10.23Q33.59.72,52.44,11.59v43.7C39.88,62.53,27.37,69.83,14.83,77.08L-22.85,55.26Z" style="fill:#fff;fill-rule:evenodd" />
                    <path d="M51.18,11.2,88.84-10.62Q107.6.34,126.46,11.2V54.91C113.9,62.14,101.4,69.44,88.85,76.69L51.18,54.87Z" style="fill:#fff;fill-rule:evenodd" />
                    <path d="M14.67,76.2,52.33,54.38Q71.11,65.35,90,76.2v43.71c-12.56,7.24-25.07,14.54-37.61,21.79L14.67,119.88Z" style="fill:#fff;fill-rule:evenodd" />
                    <path d="M49.37,173.46a3,3,0,0,1-.9-2.15V152.8a3.07,3.07,0,1,1,6.12-.09v18.6a3.07,3.07,0,0,1-3,3.05A3,3,0,0,1,49.37,173.46Z" style="fill:#dc3546;fill-rule:evenodd" />
                    <path d="M18.53,167.29a3,3,0,0,1-.88-2.16v-37a3.06,3.06,0,0,1,6.11,0v37a3.06,3.06,0,0,1-3.07,3.06h0A3.13,3.13,0,0,1,18.53,167.29Z" style="fill:#dc3546;fill-rule:evenodd" />
                    <path d="M34,158.05a3.17,3.17,0,0,1-.9-2.16V140.46a3.07,3.07,0,0,1,6.12-.09v15.52a3,3,0,0,1-3,3h0A3.13,3.13,0,0,1,34,158.05Z" style="fill:#dc3546;fill-rule:evenodd" />
                    <path d="M80.2,167.29a3.07,3.07,0,0,1-.9-2.16v-37a3.07,3.07,0,0,1,6.12,0v37a3,3,0,0,1-5.22,2.16Z" style="fill:#dc3546;fill-rule:evenodd" />
                    <path d="M64.78,158.05a3.18,3.18,0,0,1-.89-2.16V140.46a3.07,3.07,0,0,1,6.12,0v15.43a3,3,0,0,1-3.05,3h0A3.13,3.13,0,0,1,64.78,158.05Z" style="fill:#dc3546;fill-rule:evenodd" />
                    <g id="Голова">
                    <path d="M-19.22,14.23l34.62-20L50,14.23V54.44L15.78,74.3c-.33.3-.71,0-1-.15C3.44,67.56-7.9,61-19.22,54.41Q-19.19,34.31-19.22,14.23Z" style="fill:#fff;fill-rule:evenodd" />
                    <path d="M-19.22,14.23l34.62-20L50,14.23V54.44L15.78,74.3c-.33.3-.71,0-1-.15C3.44,67.56-7.9,61-19.22,54.41Q-19.19,34.31-19.22,14.23Zm4,2.34v35.5L15.4,69.82,46,52.09V16.57L15.42-1.18Q.1,7.69-15.19,16.57Z" style="fill:#005a51;fill-rule:evenodd" />
                    <path d="M4.86,14a19.52,19.52,0,0,1,12-3.16,18.6,18.6,0,0,1,12.13,4.58,15,15,0,0,1,4.4,10.27,8.48,8.48,0,0,0,1.21,4.89c.9,1.58,2.67,2.56,3.16,4.37A1.31,1.31,0,0,1,37,36.52a17.14,17.14,0,0,0-2.37,1.58c.36.68.76,1.33,1.17,2-.69.41-1.41.76-2.07,1.18a5.83,5.83,0,0,1,1.5,2,11.24,11.24,0,0,0-1.33,1.58c-.34,1.29,1,2.43.56,3.74a3.16,3.16,0,0,1-2.61,2.15,48.83,48.83,0,0,1-8.63-.38c-.58,0-1.58-.08-1.67.76-.14,1.58,0,3.26-.11,4.88-6,0-12,0-18,.11.39-3.41,1-6.81,1.29-10.2-.55-3.61-2.9-6.51-4.86-9.48a10.86,10.86,0,0,1-2.36-5.8A23.26,23.26,0,0,1-2,23.27,16.65,16.65,0,0,1,4.86,14Zm3.81,2.2a8.85,8.85,0,0,0-.16.87l-1.18.55L6.54,17a3.7,3.7,0,0,0-.79,1l.63.61c-.17.41-.33.82-.51,1.25a3.56,3.56,0,0,0-1,.3,5.57,5.57,0,0,0,0,1l1,.12q.33.76.69,1.5L6,23.47a4.17,4.17,0,0,0,.89.79l.62-.72L8.58,24a2.67,2.67,0,0,0,.11.93,5,5,0,0,0,1.09,0,8.3,8.3,0,0,0,.22-1l1.26-.54.81.65a.89.89,0,0,0,.5-1.15.84.84,0,0,0-.36-.43l.49-1.36h1a3.8,3.8,0,0,0,.11-.89c-.18-.47-.78-.35-1.16-.5a4.52,4.52,0,0,1-.28-1.08l.6-.77a4.19,4.19,0,0,0-.68-.65,4.26,4.26,0,0,0-.87.52c-.49-.22-1-.44-1.47-.65a7.2,7.2,0,0,0-.16-1A2.3,2.3,0,0,0,8.67,16.19ZM18,18.27c-.55.48,0,1.14.13,1.69a20.12,20.12,0,0,0-1.43,1.59c-.66-.32-1.75-.57-1.92.44s.64,1.12,1.23,1.39V25.5c-.44.28-1.15.41-1.25,1a1.58,1.58,0,0,0,.46.95c.49.45,1.09-.1,1.58-.21a13.74,13.74,0,0,0,1.83,1.58A7.71,7.71,0,0,0,18.39,30a1,1,0,0,0,1.23.77,1.19,1.19,0,0,0,.35-.15,5.39,5.39,0,0,0,.6-1.2l1.74-.11c.28.62.71,1.58,1.58,1.12s.53-1.29.23-1.94a19.54,19.54,0,0,0,1.44-1.58,3.93,3.93,0,0,0,1.36.28,1.36,1.36,0,0,0,.63-1.26c-.2-.54-.83-.63-1.29-.87V23a4.71,4.71,0,0,0,1.12-.71A1.17,1.17,0,0,0,27.09,21c-.45-.52-1.13,0-1.67.14-.4-.39-.79-.81-1.22-1.2.18-.63.67-1.58-.25-2s-1.34.44-1.58,1.11a14.09,14.09,0,0,0-2.43,0,3.54,3.54,0,0,0-.79-1.19A1.23,1.23,0,0,0,18,18.27ZM9.18,26.66A7.76,7.76,0,0,0,9,27.72l-1.47.68c-.36-.46-1.11-1-1.58-.3s.16,1,.47,1.42L5.83,31.1c-.59,0-1.49,0-1.5.86S5.18,33,5.83,33c.25.58.52,1.17.8,1.73l-.74,1a3.51,3.51,0,0,0,.73.76c.55.19.83-.41,1.2-.7L9,36.29v1.23a1.76,1.76,0,0,0,1.58-.09,4.6,4.6,0,0,0,.18-1.16l1.58-.65c.41.4,1.09,1,1.58.35s0-1.14-.33-1.58L14.18,33c.64,0,1.59-.09,1.49-1s-.9-.84-1.58-.89l-.52-1.3c.25-.33.69-.6.73-1.05s-.56-.67-.89-.9l-.9.75a10.75,10.75,0,0,0-1.86-.85c-.13-.44,0-1.11-.49-1.26A1.44,1.44,0,0,0,9.18,26.66Z" style="fill:#005a51;fill-rule:evenodd" />
                    <path d="M8.56,18.75a1.88,1.88,0,1,1-.77.61A1.84,1.84,0,0,1,8.56,18.75Z" style="fill:#005a51;fill-rule:evenodd" />
                    <path d="M20.41,21.56a2.78,2.78,0,1,1-1.26.82A2.72,2.72,0,0,1,20.41,21.56Z" style="fill:#005a51;fill-rule:evenodd" />
                    <path d="M9.11,29.87A2.34,2.34,0,1,1,8,33a2.24,2.24,0,0,1-.23-1.05A2.34,2.34,0,0,1,9.11,29.87Z" style="fill:#005a51;fill-rule:evenodd" />
                    </g>
                    <g id="Таблетка">
                    <path d="M17.79,77.18,52.42,57.11Q69.7,67.19,87,77.18v40.2C75.48,124,64,130.75,52.44,137.41L17.79,117.35Z" style="fill:#fff;fill-rule:evenodd" />
                    <path d="M17.79,77.18,52.42,57.11Q69.7,67.19,87,77.18v40.2C75.48,124,64,130.75,52.44,137.41L17.79,117.35Zm4,2.37V115q15.25,8.91,30.6,17.76L83,115V79.52C72.78,73.64,62.63,67.7,52.42,61.81Z" style="fill:#dc3546;fill-rule:evenodd" />
                    <path d="M53.94,78.43A9.8,9.8,0,0,1,65.19,92.35a16.26,16.26,0,0,1-2.15,3c-5.43,6.43-10.84,12.94-16.21,19.42a9.68,9.68,0,0,1-11.63,2.15,10,10,0,0,1-5-6A9.83,9.83,0,0,1,32,102.05Q40.51,91.88,49,81.7A9.76,9.76,0,0,1,53.94,78.43Zm-3.62,5.45q-8.24,9.81-16.42,19.64a7.24,7.24,0,0,0-1.29,7.08,7.49,7.49,0,0,0,7.52,5,7.31,7.31,0,0,0,5.12-2.68c2.8-3.36,5.62-6.69,8.41-10.08-3.39-2.79-6.72-5.64-10.09-8.45,2.61-3.16,5.33-6.32,7.91-9.59a10.14,10.14,0,0,1,8.43-3.16A8.72,8.72,0,0,0,50.32,83.88Z" style="fill:#dc3546;fill-rule:evenodd" />
                    <path d="M50.62,112.23c4-4.6,7.78-9.33,11.71-13.94a9.67,9.67,0,1,1-9.81,16.28A9.48,9.48,0,0,1,50.62,112.23Zm11.16-9c-2.91,3.56-6,7-8.8,10.64.93-1,1.73-2,2.6-3,2.9-3.53,5.9-7,8.74-10.53A35.44,35.44,0,0,0,61.78,103.25Zm3.16-2.34c-3.75,4.4-7.48,8.82-11.06,13.29,1.69-1.77,3.16-3.74,4.74-5.59,2-2.64,4.23-5.09,6.24-7.74Zm2.83,6.4a17.52,17.52,0,0,1-1,3.27A10.26,10.26,0,0,1,60.5,116,8.65,8.65,0,0,0,66,112.54a9.66,9.66,0,0,0,1.71-5.27Z" style="fill:#dc3546;fill-rule:evenodd" />
                    <path d="M43,111.26c2.41-2.78,4.74-5.62,7.08-8.43l1.13.91c-2.3,2.78-4.59,5.53-6.91,8.27a7.23,7.23,0,0,1-8.37,1.58A8.58,8.58,0,0,0,43,111.26Z" style="fill:#dc3546;fill-rule:evenodd" />
                    </g>
                    <g id="Шапка">
                    <path d="M54.73,14.25l34.76-20,34.62,20.06V54.36L89.49,74.43l-34-19.69a7.88,7.88,0,0,1-.71-.47Z" style="fill:#fff;fill-rule:evenodd" />
                    <path d="M54.73,14.25l34.76-20,34.62,20.06V54.36L89.49,74.43l-34-19.69a7.88,7.88,0,0,1-.71-.47Zm3.92,2.21V52.12L89.49,69.94Q104.87,61,120.26,52.09V16.44C110,10.53,99.72,4.56,89.51-1.37Z"                    style="fill:#000" />
                    <path d="M90.87,13.19l24.74,15.5L113,30.36V41.63h-3.71V32.81L101,38a13,13,0,0,1,2.4,1.69,7.7,7.7,0,0,1,2.86,5.64c0,3.16-2.15,5.77-5.5,7.57a26,26,0,0,1-22.36,0c-3.35-1.8-5.5-4.44-5.5-7.57a7.61,7.61,0,0,1,2.63-5.51A10.57,10.57,0,0,1,78.19,38L63.61,28.72,89.49,12.38ZM96.13,41l-6.64,4.08L83.17,41a13.12,13.12,0,0,0-4.37,2.23,3.14,3.14,0,0,0-1.08,2c0,1.2,1.08,2.4,2.86,3.36a19.84,19.84,0,0,0,8.91,2.09,19.06,19.06,0,0,0,9-2c1.8-1,3-2.17,3-3.37a3.37,3.37,0,0,0-1.13-2.08A12.46,12.46,0,0,0,96.13,41Zm3-16.94-9.49-6L72.57,28.72,89.49,39.53l17.1-10.81Z" style="fill:#000" />
                    </g>
            </g>
        </g>
    </g>
</svg>