<?xml version="1.0" encoding="UTF-8" standalone="no"?>
<svg width="66px" height="86px" viewBox="0 0 66 86" version="1.1" xmlns="http://www.w3.org/2000/svg" xmlns:xlink="http://www.w3.org/1999/xlink" xmlns:sketch="http://www.bohemiancoding.com/sketch/ns">
    <!-- Generator: Sketch Beta 3.0.4 (8156) - http://www.bohemiancoding.com/sketch -->
    <title>plane</title>
    <desc>Created with Sketch Beta.</desc>
    <defs></defs>
    <g id="Page-1" stroke="none" stroke-width="1" fill="none" fill-rule="evenodd" sketch:type="MSPage">
        <g id="plane" sketch:type="MSLayerGroup" transform="translate(0.000000, 1.000000)">
            <g class="rocket" id="rocket-2" transform="translate(29.092857, 40.179775)" sketch:type="MSShapeGroup">
                <g class="rocket-body">
                    <path transform="rotate(180 18.576023101806637,29.293441772460938) " id="svg_4" fill="#ffffff" d="m30.31514,17.545171a14.3,14.3 0 0 1 0,20.25l-7.43,7.44l-20.25,-20.26l7.43,-7.43a14.32,14.32 0 0 1 20.25,0z"/>
                    <path id="svg_1" fill="#fa8072" d="m41.56,6.44a14.3,14.3 0 0 1 0,20.25l-7.43,7.44l-20.25,-20.26l7.43,-7.43a14.32,14.32 0 0 1 20.25,0z"/>
                    <path id="svg_2" fill="#DC143C" d="m16.57,47.74a16.31,16.31 0 0 1 -11.57,-27.84l14.89,-14.9a16.32,16.32 0 1 1 23.11,23.1l-14.89,14.9a16.29,16.29 0 0 1 -11.54,4.74zm14.86,-43.49a12.3,12.3 0 0 0 -8.72,3.6l-14.86,14.87a12.32,12.32 0 1 0 17.43,17.42l14.86,-14.86a12.31,12.31 0 0 0 -8.71,-21.03z"/>
                </g>
            </g>
            <g class="rocket" id="rocket-1" transform="translate(-29.914286, 40.146067)" sketch:type="MSShapeGroup">
                <g class="rocket-body">
                    <path transform="rotate(90 29.47164535522461,29.294124603271488) " id="svg_4" fill="#ffffff" d="m41.210759,17.545854a14.3,14.3 0 0 1 0,20.25l-7.43,7.44l-20.25,-20.26l7.43,-7.43a14.32,14.32 0 0 1 20.25,0z"/>
                    <path transform="rotate(-90 18.575332641601566,18.747055053710938) " id="svg_1" fill="#a6c7ff" d="m30.31445,6.998785a14.3,14.3 0 0 1 0,20.25l-7.43,7.44l-20.25,-20.26l7.43,-7.43a14.32,14.32 0 0 1 20.25,0z"/>
                    <path transform="rotate(-90 24.006238937377933,23.97419548034668) " id="svg_2" fill="#2161ff" d="m16.57,47.74a16.31,16.31 0 0 1 -11.57,-27.84l14.89,-14.9a16.32,16.32 0 1 1 23.11,23.1l-14.89,14.9a16.29,16.29 0 0 1 -11.54,4.74zm14.86,-43.49a12.3,12.3 0 0 0 -8.72,3.6l-14.86,14.87a12.32,12.32 0 1 0 17.43,17.42l14.86,-14.86a12.31,12.31 0 0 0 -8.71,-21.03z"/>
                </g>
            </g>
            <g id="planebody" sketch:type="MSShapeGroup">
                <path d="M39,48H9a3,3,0,0,1-3-3V40A18.12,18.12,0,0,1,18.8,22.76L20,26.59A14.09,14.09,0,0,0,10,40v4H38V40a13.92,13.92,0,0,0-9.92-13.4l1.16-3.83A17.9,17.9,0,0,1,42,40v5A3,3,0,0,1,39,48Z" fill="#2161ff"/>
                <path d="M24,28l-0.74,0A11.18,11.18,0,0,1,13,16.69V3a3,3,0,0,1,3-3H32a3,3,0,0,1,3,3V17a11,11,0,0,1-3.48,8A10.89,10.89,0,0,1,24,28ZM17,4V16.69A7.18,7.18,0,0,0,23.53,24,7,7,0,0,0,31,17V4H17Z" fill="#2161ff"/>
                <rect fill="#2161ff" height="4" width="18" x="15" y="10"/>
                <rect fill="#a6c7ff" height="10" transform="translate(-12 60) rotate(-90)" width="4" x="22" y="31"/>
                <rect fill="#a6c7ff" height="10" transform="translate(48 72) rotate(-180)" width="4" x="22" y="31"/>
            </g>
        </g>
    </g>
</svg>