<svg width="103.99999999999999" height="128" xmlns="http://www.w3.org/2000/svg">
 <title>Layer 1</title>

 <g id="GR_x5F_DEL">
  <title>background</title>
  <rect height="130" width="106" fill="none" y="-1" x="-1" id="canvas_background"/>
 </g>
 <g>
  <g id="svg_8">
   <title>Layer 1</title>
   <path d="m47.600012,1.05785c3.5,-1.4 7.5,-1.1 10.6,1c13.2,8.4 26.5,16.8 39.7,25.2c3.4,2.2 5.5,6.3 6,10.5l0,52.5c-0.5,4.2 -2.6,8.4 -6,10.5c-13.1,8.4 -26.3,16.7 -39.4,25c-3.8,2.6 -8.9,2.7 -12.8,0.2c-13.2,-8.4 -26.5,-16.8 -39.7,-25.2c-3.4,-2.2 -5.5,-6.3 -6,-10.5l0,-52.5c0.5,-4.2 2.6,-8.3 6,-10.5c12.4,-8 24.9,-15.8 37.4,-23.8c1.4,-0.8 2.7,-1.8 4.2,-2.4" fill="#1ECD97" id="svg_1"/>
   <path d="m23.100012,55.35785c18.7,-0.2 37.3,0 56,-0.1c1.1,0 2.5,-0.1 3.4,0.8c0.8,0.7 1,1.9 1,3c0,13.1 0,26.3 0,39.4c0,1.9 -1.7,3.3 -3.4,3.1c-18.7,0 -37.5,0 -56.2,0c-1.7,0.2 -3.3,-1.2 -3.2,-3.1c-0.1,-13.2 0,-26.3 0,-39.5c-0.3,-1.5 0.6,-3.5 2.4,-3.6" fill="#FFFFFF" id="svg_10"/>
   <path d="m49.300012,65.05785" fill="#1ECD97" opacity="0.5" id="svg_13"/>
   <path d="m26.700012,43.25785" fill="#1ECD97" opacity="0.5" id="svg_14"/>
   <path id="svg_2" d="m31.500012,67.85785l0,7.6c1.3,-1.5 2.8,-2.3 4.6,-2.3c0.9,0 1.7,0.2 2.5,0.5s1.3,0.8 1.7,1.3c0.4,0.5 0.6,1.1 0.8,1.8c0.1,0.6 0.2,1.6 0.2,3l0,8.8l-4,0l0,-7.9c0,-1.6 -0.1,-2.6 -0.2,-3c-0.2,-0.4 -0.4,-0.8 -0.8,-1c-0.4,-0.3 -0.9,-0.4 -1.4,-0.4c-0.7,0 -1.3,0.2 -1.8,0.5c-0.5,0.3 -0.9,0.8 -1.1,1.5c-0.2,0.6 -0.4,1.6 -0.4,2.9l0,7.5l-4,0l0,-20.8l3.9,0z" fill="#1ECD97"/>
   <path id="svg_3" d="m55.100012,88.65785l0,-2.3c-0.5,0.8 -1.3,1.4 -2.2,1.9c-0.9,0.5 -1.8,0.7 -2.8,0.7c-1,0 -1.9,-0.2 -2.7,-0.7c-0.8,-0.4 -1.4,-1.1 -1.7,-1.9c-0.4,-0.8 -0.5,-1.9 -0.5,-3.3l0,-9.5l4,0l0,6.9c0,2.1 0.1,3.4 0.2,3.9c0.1,0.5 0.4,0.9 0.8,1.1s0.9,0.4 1.5,0.4c0.7,0 1.3,-0.2 1.8,-0.6c0.5,-0.4 0.9,-0.8 1.1,-1.4c0.2,-0.6 0.3,-1.9 0.3,-4.1l0,-6.3l4,0l0,15l-3.8,0l0,0.2z" fill="#1ECD97"/>
   <path id="svg_4" d="m62.800012,88.65785l0,-20.8l4,0l0,7.5c1.2,-1.4 2.7,-2.1 4.4,-2.1c1.8,0 3.3,0.7 4.5,2c1.2,1.3 1.8,3.2 1.8,5.7c0,2.6 -0.6,4.5 -1.8,5.9c-1.2,1.4 -2.7,2.1 -4.5,2.1c-0.9,0 -1.7,-0.2 -2.5,-0.6c-0.8,-0.4 -1.6,-1.1 -2.2,-1.9l0,2.2l-3.7,0zm3.9,-7.9c0,1.6 0.2,2.7 0.7,3.5c0.7,1.1 1.6,1.6 2.7,1.6c0.9,0 1.6,-0.4 2.2,-1.1c0.6,-0.8 0.9,-1.9 0.9,-3.5c0,-1.7 -0.3,-3 -0.9,-3.7s-1.4,-1.1 -2.4,-1.1c-1,0 -1.7,0.4 -2.4,1.1c-0.5,0.6 -0.8,1.7 -0.8,3.2z" fill="#1ECD97"/>
   <path id="svg_5" d="m39.900012,49.35785l-4.6,0l-1.8,-4.7l-8.3,0l-1.7,4.7l-4.4,0l8.1,-20.8l4.4,0l8.3,20.8zm-7.7,-8.2l-2.9,-7.7l-2.8,7.7l5.7,0z" fill="#FFFFFF"/>
   <path id="svg_6" d="m42.100012,49.35785l0,-20.8l6.3,0l3.8,14.2l3.7,-14.2l6.3,0l0,20.8l-3.9,0l0,-16.3l-4.1,16.3l-4,0l-4.1,-16.3l0,16.3l-4,0z" fill="#FFFFFF"/>
   <path id="svg_7" d="m66.300012,49.35785l0,-20.8l8.8,0c2.2,0 3.8,0.2 4.8,0.6c1,0.4 1.8,1 2.4,2c0.6,1 0.9,2 0.9,3.3c0,1.6 -0.5,2.8 -1.4,3.9c-0.9,1 -2.3,1.7 -4.1,1.9c0.9,0.5 1.7,1.1 2.2,1.7c0.6,0.6 1.4,1.8 2.4,3.4l2.5,4l-5,0l-3,-4.5c-1.1,-1.6 -1.8,-2.6 -2.2,-3.1s-0.8,-0.7 -1.3,-0.9c-0.4,-0.2 -1.1,-0.2 -2.1,-0.2l-0.8,0l0,8.7l-4.1,0zm4.2,-12l3.1,0c2,0 3.3,-0.1 3.8,-0.3c0.5,-0.2 0.9,-0.5 1.2,-0.9s0.4,-0.9 0.4,-1.6c0,-0.7 -0.2,-1.3 -0.6,-1.7c-0.4,-0.4 -0.9,-0.7 -1.6,-0.8c-0.3,0 -1.4,-0.1 -3.1,-0.1l-3.3,0l0,5.4l0.1,0z" fill="#FFFFFF"/>
  </g>
 </g>
</svg>