<svg width="128" height="128" xmlns="http://www.w3.org/2000/svg">

 <g>
  <title>background</title>
  <rect fill="none" id="canvas_background" height="130" width="130" y="-1" x="-1"/>
 </g>
 <g>
  <g stroke="null" id="svg_7">
   <title stroke="null">Layer 1</title>
   <path stroke="null" id="svg_1" d="m63.222115,0l1.330335,0c13.91236,0.127293 27.742353,4.926982 38.669571,13.55544c10.605241,8.254068 18.504886,19.937554 22.131484,32.88149c1.5974,5.528503 2.35367,11.281641 2.438532,17.029786l0,0.876074c-0.077374,9.761614 -2.383621,19.503261 -6.788952,28.221573c-6.946196,13.897384 -19.14135,25.076691 -33.607808,30.754951c-7.320587,2.910264 -15.185288,4.402835 -23.059973,4.472721l-2.051661,0c-10.418046,-0.304504 -20.773694,-3.099955 -29.833949,-8.269043c-13.343286,-7.510278 -23.808755,-19.972498 -28.848054,-34.433964c-2.203913,-6.202406 -3.349549,-12.754244 -3.601639,-19.323554l0,-2.545857c0.084862,-4.634957 0.596529,-9.269915 1.657303,-13.785067c3.214768,-14.124514 11.488804,-27.003556 22.917705,-35.889096c10.91973,-8.620971 24.742235,-13.415668 38.647107,-13.545457m8.848101,17.751113c-1.477595,-0.404342 -2.917752,-0.940969 -4.385363,-1.387742c0.863595,1.228002 1.7821,2.418564 2.633215,3.654054c-0.733806,1.312863 -1.79458,2.48845 -2.630719,3.761379c1.457628,-0.459253 2.907768,-0.948457 4.367892,-1.407709c0.881066,1.242977 1.784596,2.470979 2.688125,3.701476c0,-1.525018 0.009984,-3.047541 -0.002496,-4.570063c1.445148,-0.494196 2.90028,-0.95844 4.355412,-1.420189c-1.43766,-0.519155 -2.907768,-0.938473 -4.352916,-1.440156c0.004992,-1.522522 0.002496,-3.045045 -0.004992,-4.565071c-0.898538,1.215522 -1.787092,2.443524 -2.668158,3.674021m-31.229179,2.406084c-1.445148,4.372884 -2.797947,8.778215 -4.302997,13.131131c-4.619982,-0.077374 -9.244955,-0.01248 -13.864937,-0.034943c3.746403,2.738044 7.50279,5.461113 11.256681,8.189173c-1.425181,4.407827 -2.877817,8.80567 -4.288022,13.218489c3.756387,-2.708093 7.497798,-5.438649 11.249194,-8.15423c3.756387,2.720573 7.505286,5.453625 11.261673,8.176694c-1.430173,-4.415315 -2.865337,-8.825638 -4.298006,-13.238456c3.743907,-2.738044 7.51527,-5.446137 11.256681,-8.189173c-4.637453,-0.004992 -9.277402,0.007488 -13.914856,-0.007488c-1.35779,-4.170713 -2.720573,-8.33893 -4.065883,-12.514634c-0.074878,-0.202171 -0.17222,-0.394358 -0.289529,-0.576562m42.705503,6.62422c0.002496,1.539994 0.072382,3.079988 0.06739,4.622478c-1.442652,0.481716 -2.880313,0.975912 -4.315477,1.477595c1.430173,0.531635 2.910264,0.906026 4.3629,1.375262c0.054911,1.502555 0.037439,3.007606 0.097342,4.51016c0.990887,-1.138148 1.752149,-2.456003 2.653182,-3.664037c1.480091,0.439285 2.952695,0.90353 4.435282,1.337823c-0.930985,-1.232993 -1.871954,-2.458499 -2.782971,-3.706468c0.883562,-1.257953 1.762132,-2.520898 2.645695,-3.77885c-1.457628,0.486708 -2.910264,0.985896 -4.360404,1.497563c-0.963432,-1.200546 -1.842002,-2.468483 -2.802939,-3.671525m1.946832,18.804398c-0.439285,1.475099 -0.896042,2.947703 -1.340319,4.420307c-1.527514,0.034943 -3.052532,0.042431 -4.577551,0.09235c1.205538,0.933481 2.495938,1.757141 3.731428,2.650686c-0.444277,1.480091 -0.906026,2.955191 -1.347807,4.435282c1.22301,-0.928489 2.458499,-1.839506 3.666533,-2.782971c1.300384,0.841131 2.538369,1.774612 3.823777,2.638207c-0.4917,-1.457628 -1.000871,-2.910264 -1.495067,-4.367892c1.208034,-0.911017 2.413572,-1.827027 3.63159,-2.723069c-1.510043,-0.114813 -3.027573,0.004992 -4.542608,0.017472c-0.564082,-1.442652 -0.995879,-2.932727 -1.549978,-4.380372m-13.493042,16.927453c-1.420189,-0.516659 -2.867833,-0.953448 -4.305493,-1.415197c0.883562,1.22301 1.739669,2.463491 2.67315,3.649062c-0.843627,1.2904 -1.809555,2.493442 -2.68563,3.761379c1.460124,-0.459253 2.910264,-0.953448 4.372884,-1.405213c0.89105,1.205538 1.719701,2.463491 2.675646,3.61911c0.034943,-1.505051 -0.004992,-3.012597 0.027455,-4.520144c1.447644,-0.461749 2.90028,-0.911017 4.332949,-1.420189c-1.452636,-0.471732 -2.91276,-0.916009 -4.352916,-1.422685c0.017472,-1.520026 0.002496,-3.042549 0.002496,-4.562575c-0.933481,1.225506 -1.7821,2.51341 -2.74054,3.716452z" fill="#fc0101"/>
   <path stroke="null" id="svg_2" d="m72.070216,17.751113c0.881066,-1.230498 1.76962,-2.458499 2.668158,-3.674021c0.007488,1.520026 0.009984,3.042549 0.004992,4.565071c1.445148,0.501684 2.915256,0.921001 4.352916,1.440156c-1.455132,0.461749 -2.910264,0.925993 -4.355412,1.420189c0.01248,1.522522 0.002496,3.045045 0.002496,4.570063c-0.90353,-1.230498 -1.807059,-2.458499 -2.688125,-3.701476c-1.460124,0.459253 -2.910264,0.948457 -4.367892,1.407709c0.836139,-1.272928 1.896913,-2.448515 2.630719,-3.761379c-0.851115,-1.235489 -1.76962,-2.426052 -2.633215,-3.654054c1.467612,0.446773 2.907768,0.9834 4.385363,1.387742z" fill="#fdfd01"/>
   <path stroke="null" id="svg_3" d="m40.841037,20.157197c0.117309,0.182203 0.214651,0.374391 0.289529,0.576562c1.345311,4.175705 2.708093,8.343921 4.065883,12.514634c4.637453,0.014976 9.277402,0.002496 13.914856,0.007488c-3.741411,2.743036 -7.512774,5.451129 -11.256681,8.189173c1.432669,4.412819 2.867833,8.823142 4.298006,13.238456c-3.756387,-2.723069 -7.505286,-5.456121 -11.261673,-8.176694c-3.751395,2.715581 -7.492807,5.446137 -11.249194,8.15423c1.410205,-4.412819 2.862841,-8.810662 4.288022,-13.218489c-3.753891,-2.72806 -7.510278,-5.451129 -11.256681,-8.189173c4.619982,0.022463 9.244955,-0.042431 13.864937,0.034943c1.505051,-4.352916 2.857849,-8.758247 4.302997,-13.131131z" fill="#fdfd01"/>
   <path stroke="null" id="svg_4" d="m83.54654,26.781417c0.960936,1.203042 1.839506,2.470979 2.802939,3.671525c1.45014,-0.511667 2.902776,-1.010855 4.360404,-1.497563c-0.883562,1.257953 -1.762132,2.520898 -2.645695,3.77885c0.911017,1.247969 1.851986,2.473475 2.782971,3.706468c-1.482587,-0.434293 -2.955191,-0.898538 -4.435282,-1.337823c-0.901034,1.208034 -1.662295,2.525889 -2.653182,3.664037c-0.059903,-1.502555 -0.042431,-3.007606 -0.097342,-4.51016c-1.452636,-0.469236 -2.932727,-0.843627 -4.3629,-1.375262c1.435164,-0.501684 2.872825,-0.995879 4.315477,-1.477595c0.004992,-1.54249 -0.064894,-3.082484 -0.06739,-4.622478z" fill="#fdfd01"/>
   <path stroke="null" id="svg_5" d="m85.493372,45.585815c0.554098,1.447644 0.985896,2.937719 1.549978,4.380372c1.515034,-0.01248 3.032565,-0.132285 4.542608,-0.017472c-1.218018,0.896042 -2.423556,1.812051 -3.63159,2.723069c0.494196,1.457628 1.003367,2.910264 1.495067,4.367892c-1.285408,-0.863595 -2.523394,-1.797076 -3.823777,-2.638207c-1.208034,0.943465 -2.443524,1.854482 -3.666533,2.782971c0.441781,-1.480091 0.90353,-2.955191 1.347807,-4.435282c-1.235489,-0.893546 -2.525889,-1.717205 -3.731428,-2.650686c1.525018,-0.049919 3.050036,-0.057407 4.577551,-0.09235c0.444277,-1.472604 0.901034,-2.945207 1.340319,-4.420307z" fill="#fdfd01"/>
   <path stroke="null" id="svg_6" d="m72.00033,62.513268c0.95844,-1.203042 1.807059,-2.490946 2.74054,-3.716452c0,1.520026 0.014976,3.042549 -0.002496,4.562575c1.440156,0.506675 2.90028,0.950952 4.352916,1.422685c-1.432669,0.509171 -2.885305,0.95844 -4.332949,1.420189c-0.032447,1.507547 0.007488,3.015093 -0.027455,4.520144c-0.955944,-1.155619 -1.784596,-2.413572 -2.675646,-3.61911c-1.46262,0.451765 -2.91276,0.945961 -4.372884,1.405213c0.876074,-1.267937 1.842002,-2.470979 2.68563,-3.761379c-0.933481,-1.185571 -1.789588,-2.426052 -2.67315,-3.649062c1.43766,0.461749 2.885305,0.898538 4.305493,1.415197z" fill="#fdfd01"/>
  </g>
 </g>
</svg>