<?xml version="1.0" encoding="UTF-8" standalone="no"?>
<svg width="66px" height="86px" viewBox="0 0 66 86" version="1.1" xmlns="http://www.w3.org/2000/svg" xmlns:xlink="http://www.w3.org/1999/xlink" xmlns:sketch="http://www.bohemiancoding.com/sketch/ns">
    <!-- Generator: Sketch Beta 3.0.4 (8156) - http://www.bohemiancoding.com/sketch -->
    <title>plane</title>
    <desc>Created with Sketch Beta.</desc>
    <defs></defs>
    <g id="Page-1" stroke="none" stroke-width="1" fill="none" fill-rule="evenodd" sketch:type="MSPage">
        <g id="plane" sketch:type="MSLayerGroup" transform="translate(0.000000, 1.000000)">
            <g class="rocket" id="rocket-3" transform="translate(40, 10)" sketch:type="MSShapeGroup">
                <g class="rocket-body">
                    <g transform="rotate(20 23.968751907348636,23.968751907348633) " stroke="null" id="svg_7">
                        <ellipse stroke="null" ry="23.968753" rx="23.968753" id="svg_6" cy="23.968753" cx="23.968753" stroke-opacity="null" stroke-width="null" fill="#007f3f"/>
                        <path stroke="null" id="svg_2" d="m23.150126,5.297274c1.102922,-0.234824 2.303271,0.009993 3.206344,0.69323c1.020484,0.740694 1.645015,1.986009 1.621283,3.247563c0.001249,9.285531 0.001249,18.572311 0.001249,27.859092c-0.004996,0.658256 0.036223,1.320259 -0.036223,1.977266c-0.147389,1.23907 -0.938046,2.370721 -2.034723,2.956531c-1.1991,0.670747 -2.749187,0.649513 -3.929551,-0.051212c-0.904321,-0.517112 -1.57257,-1.410192 -1.848613,-2.410691c-0.206095,-0.764426 -0.13365,-1.565075 -0.143642,-2.346989c0.003747,-8.909563 0.006245,-17.820376 0.007494,-26.729939c0.007494,-0.683237 -0.041219,-1.373969 0.074944,-2.050961c0.276043,-1.537596 1.555083,-2.827878 3.081437,-3.14389m0.503372,2.62428c-0.584561,0.142393 -1.017986,0.715713 -0.996752,1.31901c-0.001249,9.743937 -0.002498,19.489123 0.002498,29.23306c-0.0662,1.030477 1.240319,1.752435 2.068448,1.125405c0.729453,-0.45341 0.593305,-1.396452 0.592056,-2.127154c-0.009993,-9.410437 0.001249,-18.822124 -0.003747,-28.232561c0.046215,-0.851861 -0.83937,-1.563826 -1.662502,-1.317761z" fill="#007f3f"/>
                        <path stroke="null" id="svg_3" d="m22.541832,2.57182c4.301772,-0.286035 8.682234,0.756932 12.379459,2.979014c3.373718,2.022232 6.170369,4.997499 7.985257,8.488629c1.608793,3.09143 2.430676,6.585058 2.394453,10.067444c-0.054959,4.22433 -1.378965,8.429923 -3.804645,11.893574c-2.588058,3.723456 -6.378963,6.616284 -10.690727,8.043963c-3.346239,1.139145 -6.979762,1.433924 -10.460899,0.811891c-4.360477,-0.740694 -8.463648,-2.892829 -11.557576,-6.054206c-2.659254,-2.680488 -4.575316,-6.086682 -5.488381,-9.750182c-1.056707,-4.166873 -0.805645,-8.653506 0.710717,-12.675487c1.503871,-4.040717 4.274292,-7.599297 7.825377,-10.04621c3.138894,-2.194603 6.88858,-3.493628 10.706964,-3.758429m0.608293,2.725455c-1.526354,0.316013 -2.805395,1.606294 -3.081437,3.14389c-0.116163,0.676992 -0.067449,1.367724 -0.074944,2.050961c-0.001249,8.909563 -0.003747,17.820376 -0.007494,26.729939c0.009993,0.781913 -0.062453,1.582562 0.143642,2.346989c0.276043,1.000499 0.944291,1.893579 1.848613,2.410691c1.180364,0.700724 2.730451,0.721958 3.929551,0.051212c1.096677,-0.58581 1.887334,-1.717461 2.034723,-2.956531c0.072446,-0.657007 0.031227,-1.31901 0.036223,-1.977266c0,-9.28678 0,-18.57356 -0.001249,-27.859092c0.023732,-1.261553 -0.600799,-2.506869 -1.621283,-3.247563c-0.903072,-0.683237 -2.103421,-0.928053 -3.206344,-0.69323z" fill="#aaffd4"/>
                        <path stroke="null" id="svg_4" d="m23.653498,7.921555c0.823132,-0.246065 1.708718,0.4659 1.662502,1.317761c0.004996,9.410437 -0.006245,18.822124 0.003747,28.232561c0.001249,0.730702 0.137397,1.673744 -0.592056,2.127154c-0.828128,0.627029 -2.134648,-0.094929 -2.068448,-1.125405c-0.004996,-9.743937 -0.003747,-19.489123 -0.002498,-29.23306c-0.021234,-0.603297 0.412191,-1.176617 0.996752,-1.31901z" fill="#aaffd4"/>
                    </g>
                  
                </g>
            </g>
            <g class="rocket" id="rocket-4" transform="translate(15, 15)" sketch:type="MSShapeGroup">
                <g class="rocket-body">
                    <!-- <g transform="rotate(-50 15.895844459533695,15.791678428649908) " id="svg_8">
                        <ellipse stroke="null" ry="15.895844" rx="15.895844" id="svg_6" cy="15.791678" cx="15.895844" stroke-opacity="null" stroke-width="null" fill="#ff7f00"/>
                        <path stroke="null" id="svg_2" d="m15.352939,3.513101c0.731447,-0.155733 1.527507,0.006627 2.126416,0.459743c0.676775,0.491221 1.090958,1.317102 1.075219,2.153752c0.000828,6.158074 0.000828,12.316977 0.000828,18.475879c-0.003313,0.436549 0.024023,0.875583 -0.024023,1.311304c-0.097747,0.821739 -0.622103,1.572239 -1.349409,1.960743c-0.795232,0.444833 -1.823234,0.43075 -2.60604,-0.033963c-0.599737,-0.342944 -1.042913,-0.935225 -1.225982,-1.598747c-0.13668,-0.50696 -0.088635,-1.037943 -0.095262,-1.5565c0.002485,-5.908736 0.004142,-11.8183 0.00497,-17.727036c0.00497,-0.453116 -0.027336,-0.911203 0.049702,-1.360177c0.183069,-1.019719 1.031316,-1.875421 2.043579,-2.084998m0.333832,1.740397c-0.387675,0.094434 -0.675118,0.474654 -0.661036,0.874755c-0.000828,6.462085 -0.001657,12.924998 0.001657,19.387082c-0.043903,0.683402 0.822568,1.162198 1.371774,0.746358c0.483766,-0.300697 0.393474,-0.926113 0.392646,-1.410708c-0.006627,-6.240911 0.000828,-12.48265 -0.002485,-18.723561c0.03065,-0.564946 -0.556662,-1.037114 -1.102555,-0.873926z" fill="#ff7f00"/>
                        <path stroke="null" id="svg_3" d="m14.949525,1.705606c2.852893,-0.189696 5.757973,0.50199 8.209937,1.975653c2.237417,1.341125 4.092129,3.314293 5.295745,5.629577c1.066936,2.050206 1.612001,4.367147 1.587978,6.676631c-0.036448,2.801534 -0.914516,5.590643 -2.523203,7.887703c-1.716375,2.46936 -4.230466,4.387856 -7.089986,5.334678c-2.219193,0.75547 -4.62891,0.950964 -6.937567,0.538438c-2.891826,-0.491221 -5.613009,-1.918496 -7.664872,-4.015091c-1.763592,-1.777674 -3.034305,-4.036628 -3.639841,-6.466226c-0.700798,-2.76343 -0.534296,-5.738921 0.47134,-8.40626c0.997353,-2.679765 2.834669,-5.03978 5.189714,-6.662549c2.081684,-1.455439 4.56844,-2.31694 7.100755,-2.492554m0.403414,1.807495c-1.012263,0.209577 -1.86051,1.065279 -2.043579,2.084998c-0.077038,0.448974 -0.044732,0.907061 -0.049702,1.360177c-0.000828,5.908736 -0.002485,11.8183 -0.00497,17.727036c0.006627,0.518557 -0.041418,1.04954 0.095262,1.5565c0.183069,0.663521 0.626245,1.255803 1.225982,1.598747c0.782806,0.464713 1.810808,0.478796 2.60604,0.033963c0.727306,-0.388504 1.251661,-1.139004 1.349409,-1.960743c0.048045,-0.435721 0.020709,-0.874755 0.024023,-1.311304c0,-6.158903 0,-12.317805 -0.000828,-18.475879c0.015739,-0.83665 -0.398444,-1.662531 -1.075219,-2.153752c-0.598909,-0.453116 -1.394969,-0.615476 -2.126416,-0.459743z" fill="#ffffaa"/>
                        <path stroke="null" id="svg_4" d="m15.686771,5.253498c0.545893,-0.163188 1.133205,0.308981 1.102555,0.873926c0.003313,6.240911 -0.004142,12.48265 0.002485,18.723561c0.000828,0.484594 0.09112,1.110011 -0.392646,1.410708c-0.549207,0.41584 -1.415678,-0.062956 -1.371774,-0.746358c-0.003313,-6.462085 -0.002485,-12.924998 -0.001657,-19.387082c-0.014082,-0.400101 0.273361,-0.780321 0.661036,-0.874755z" fill="#ffffaa"/>
                    </g> -->
<path stroke="null" fill="#E4E5E6" id="XMLID_1692_" d="m62.190388,21.939478c-0.342566,-11.258604 -4.700921,-20.165309 -10.040913,-20.165309l-40.30183,0c-5.564531,0 -10.075458,9.666682 -10.075458,21.590266s4.510926,21.590266 10.075458,21.590266l1.439351,0l0,17.272213l4.093514,-2.878702l4.093514,2.878702l4.084878,-2.878702l4.076242,2.878702l4.082,-2.878702l4.076242,2.878702l4.073364,-2.878702l4.079121,2.878702l4.064727,-2.878702l4.064727,2.878702l4.076242,-2.878702l4.073364,2.878702l0,-40.30183l-0.034544,0.014394z"/>
   <path stroke="null" opacity="0.1" id="XMLID_1689_" d="m13.286996,52.151457l38.862479,0c5.564531,0 10.075458,-9.666682 10.075458,-21.590266c0,-1.229206 -0.060453,-2.426746 -0.149693,-3.598378c-0.800279,10.207878 -4.934096,17.991889 -9.925765,17.991889l-38.862479,0c0,0 0,7.196755 0,7.196755z"/>
   <path stroke="null" opacity="0.5" fill="#FFFFFF" id="XMLID_1660_" d="m50.180443,44.534411c0.083482,0.146814 0.172722,0.279234 0.261962,0.420291l1.70707,0c-0.673616,0 -1.332839,-0.146814 -1.969032,-0.420291z"/>
   <path stroke="null" opacity="0.5" fill="#FFFFFF" id="XMLID_1661_" d="m6.09024,27.682488c0,-11.923584 4.510926,-21.590266 10.075458,-21.590266l29.955775,0c1.681162,-2.700223 3.762464,-4.318053 6.028002,-4.318053l-40.30183,0c-5.564531,0 -10.075458,9.666682 -10.075458,21.590266c0,10.478476 3.48323,19.206701 8.106425,21.169976c-2.308719,-3.955337 -3.788372,-10.029398 -3.788372,-16.851922z"/>
   <path stroke="null" opacity="0.1" id="XMLID_1671_" d="m11.847645,44.954701l40.30183,0c-2.26266,0 -4.343962,-1.617831 -6.028002,-4.318053l-40.30183,0c1.684041,2.700223 3.765342,4.318053 6.028002,4.318053z"/>
   <ellipse stroke="null" opacity="0.2" ry="21.590266" rx="10.075458" id="XMLID_1655_" cy="23.364435" cx="52.149475"/>
   <path stroke="null" fill="#303C42" id="XMLID_1378_" d="m49.270773,23.364435c0,5.731496 0.970123,8.636106 2.878702,8.636106s2.878702,-2.90461 2.878702,-8.636106s-0.970123,-8.636106 -2.878702,-8.636106s-2.878702,2.90461 -2.878702,8.636106z"/>
   <path stroke="null" fill="#303C42" id="XMLID_1386_" d="m63.623982,21.726454c-0.408776,-12.116457 -5.293933,-21.391636 -11.474507,-21.391636l-40.30183,0c-6.456929,0 -11.514809,10.115759 -11.514809,23.029617s5.05788,23.029617 11.514809,23.029617l0,15.832862c0,0.538317 0.299385,1.030575 0.77725,1.278144c0.474986,0.24469 1.050726,0.207267 1.494046,-0.100755l3.264448,-2.297204l3.26157,2.294326c0.500894,0.351202 1.157238,0.351202 1.658132,0l3.258691,-2.294326l3.247176,2.291447c0.495137,0.351202 1.162996,0.35408 1.658132,0l3.252933,-2.294326l3.247176,2.291447c0.495137,0.351202 1.162996,0.351202 1.658132,0l3.244297,-2.291447l3.250055,2.291447c0.495137,0.351202 1.160117,0.348323 1.661011,0l3.232783,-2.288568l3.232783,2.288568c0.498015,0.348323 1.162996,0.351202 1.661011,0l3.247176,-2.291447l3.244297,2.291447c0.247568,0.175601 0.538317,0.264841 0.829066,0.264841c0.227417,0 0.451956,-0.054695 0.659223,-0.161207c0.477865,-0.247568 0.780128,-0.739826 0.780128,-1.278144l0,-40.30183c-0.002879,-0.063331 -0.031666,-0.123784 -0.043181,-0.192873zm-2.8384,1.637982c0,11.874646 -4.551228,20.150915 -8.636106,20.150915s-8.636106,-8.276269 -8.636106,-20.150915s4.551228,-20.150915 8.636106,-20.150915s8.636106,8.276269 8.636106,20.150915zm-57.574043,0c0,-11.874646 4.551228,-20.150915 8.636106,-20.150915l34.653817,0c-3.52641,3.892005 -5.866795,11.370874 -5.866795,20.150915s2.340385,16.25891 5.866795,20.150915l-34.653817,0c-4.084878,0 -8.636106,-8.276269 -8.636106,-20.150915zm57.574043,36.081653l-1.804946,-1.272386c-0.495137,-0.351202 -1.162996,-0.351202 -1.658132,0l-3.247176,2.291447l-3.232783,-2.291447c-0.500894,-0.351202 -1.162996,-0.351202 -1.66389,0l-3.235661,2.291447l-3.247176,-2.291447c-0.495137,-0.351202 -1.162996,-0.351202 -1.658132,0l-3.244297,2.291447l-3.247176,-2.291447c-0.495137,-0.351202 -1.162996,-0.35408 -1.658132,0l-3.252933,2.294326l-3.247176,-2.291447c-0.495137,-0.351202 -1.157238,-0.35408 -1.658132,0l-3.258691,2.294326l-3.26157,-2.294326c-0.500894,-0.351202 -1.157238,-0.351202 -1.658132,0l-1.825097,1.278144l0,-13.060672l37.423128,0c3.477472,0 6.540411,-2.953548 8.636106,-7.680377l0,20.732413z"/>
   <path stroke="null" fill="url(#XMLID_2_)" id="XMLID_1717_" d="m63.623982,21.726454c-0.408776,-12.116457 -5.293933,-21.391636 -11.474507,-21.391636l-40.30183,0c-6.456929,0 -11.514809,10.115759 -11.514809,23.029617s5.05788,23.029617 11.514809,23.029617l0,15.832862c0,0.538317 0.299385,1.030575 0.77725,1.278144c0.474986,0.24469 1.050726,0.207267 1.494046,-0.100755l3.264448,-2.297204l3.26157,2.294326c0.500894,0.351202 1.157238,0.351202 1.658132,0l3.258691,-2.294326l3.247176,2.291447c0.495137,0.351202 1.162996,0.35408 1.658132,0l3.252933,-2.294326l3.247176,2.291447c0.495137,0.351202 1.162996,0.351202 1.658132,0l3.244297,-2.291447l3.250055,2.291447c0.495137,0.351202 1.160117,0.348323 1.661011,0l3.232783,-2.288568l3.232783,2.288568c0.498015,0.348323 1.162996,0.351202 1.661011,0l3.247176,-2.291447l3.244297,2.291447c0.247568,0.175601 0.538317,0.264841 0.829066,0.264841c0.227417,0 0.451956,-0.054695 0.659223,-0.161207c0.477865,-0.247568 0.780128,-0.739826 0.780128,-1.278144l0,-40.30183c-0.002879,-0.063331 -0.031666,-0.123784 -0.043181,-0.192873z"/>
                </g>
            </g>
            <g class="rocket" id="rocket-2" transform="translate(0,10)" sketch:type="MSShapeGroup">
                <g class="rocket-body">

                                <path stroke="null" id="svg_1" fill="#02c26a" d="m85.956139,38.51093l-47.445238,47.445238l-28.467143,-28.467143l17.396587,-17.396587l0,-1.852365a10.799212,10.799212 0 0 1 10.799698,-10.799698l1.852365,0l17.396587,-17.396587l28.467143,28.467143z"/>
   <path stroke="null" id="svg_2" d="m42.600388,32.184898l-0.734575,0a9.680663,9.680663 0 0 0 -9.680944,9.680944l0,0.734575l-2.699877,2.699683l2.236739,2.236739l3.163016,-3.163016a1.581972,1.581972 0 0 0 0.463139,-1.118369l0,-1.389612a6.518155,6.518155 0 0 1 6.517928,-6.517928l1.389612,0a1.581972,1.581972 0 0 0 1.118369,-0.463139l3.163016,-3.163016l-2.236739,-2.236739l-2.699683,2.699877z"/>
   <path stroke="null" id="svg_3" d="m95.445224,17.792439a17.237742,17.237742 0 0 0 -29.426628,-12.188925l-5.366547,5.366549l-2.044647,-2.044649a1.582101,1.582101 0 0 0 -2.236739,0l-16.933255,16.933448l-1.197897,0a12.380465,12.380465 0 0 0 -12.380637,12.380637l0,1.197907l-16.933448,16.933245a1.581749,1.581749 0 0 0 0,2.236739l2.044649,2.044647l-5.366549,5.366547a17.237742,17.237742 0 0 0 24.377849,24.377849l5.366547,-5.366549l2.044647,2.044649a1.581866,1.581866 0 0 0 2.236739,0l47.445238,-47.445238a1.581749,1.581749 0 0 0 0,-2.236739l-2.044649,-2.044647l5.366549,-5.366547a17.125438,17.125438 0 0 0 5.048778,-12.188925zm-67.700586,70.367256a14.074517,14.074517 0 1 1 -19.904372,-19.904372l5.366547,-5.366549l19.904374,19.904374l-5.366549,5.366547zm53.467112,-47.140892l-19.441331,-19.441333l-2.236739,2.236739l2.068201,2.068199l-35.30342,36.838408l2.283844,2.188475l35.256795,-36.789662l2.507305,2.507303l-35.30342,36.838408l2.283844,2.188475l35.256795,-36.789662l2.507305,2.507303l-35.30342,36.838408l2.283844,2.188475l35.256795,-36.789662l5.646857,5.646871l-40.464066,40.464072l-26.230598,-26.230598l16.278412,-16.278218a1.581972,1.581972 0 0 0 0.463139,-1.118369l0,-1.852934a9.217957,9.217957 0 0 1 9.217621,-9.217621l1.852934,0a1.581972,1.581972 0 0 0 1.118369,-0.463139l16.278218,-16.278412l26.230598,26.230598l-2.507882,2.507876zm1.581411,-7.907629l-19.904374,-19.904374l5.366549,-5.366547a14.074517,14.074517 0 1 1 19.904372,19.904372l-5.366547,5.366549z"/>


                   <!-- <path fill="#2161ff" opacity="1.00" d=" M 45.40 0.00 L 48.63 0.00 C 56.57 0.70 63.25 7.41 64.00 15.33 L 64.00 18.48 C 63.46 22.39 61.78 26.15 58.94 28.93 C 48.99 38.97 38.97 48.93 28.95 58.91 C 26.20 61.75 22.46 63.42 18.58 64.00 L 15.35 64.00 C 7.43 63.27 0.73 56.59 0.00 48.67 L 0.00 45.42 C 0.53 38.82 5.64 34.34 10.08 30.05 C 18.38 21.68 26.75 13.37 35.10 5.04 C 37.82 2.21 41.55 0.57 45.40 0.00 M 38.81 7.77 C 34.13 12.40 29.31 16.93 24.91 21.82 C 30.73 27.50 36.50 33.24 42.18 39.07 C 46.94 34.93 51.18 30.18 55.72 25.78 C 60.37 21.39 60.76 13.39 56.34 8.70 C 52.09 3.58 43.59 3.12 38.81 7.77 M 21.40 25.48 C 16.24 30.22 11.29 35.25 6.59 40.45 C 6.56 40.49 6.50 40.58 6.47 40.62 L 5.56 42.41 C 5.54 42.45 5.50 42.54 5.48 42.59 C 4.43 45.38 4.46 48.62 5.41 51.44 C 5.43 51.49 5.47 51.60 5.50 51.65 L 6.36 53.40 C 6.39 53.45 6.45 53.55 6.48 53.60 C 7.48 55.17 8.82 56.51 10.38 57.52 C 10.43 57.55 10.54 57.61 10.59 57.64 L 12.40 58.52 C 12.45 58.54 12.54 58.58 12.59 58.60 C 15.40 59.65 18.63 59.60 21.42 58.50 C 21.47 58.48 21.57 58.43 21.62 58.41 L 23.32 57.56 C 23.36 57.53 23.45 57.47 23.50 57.44 C 28.69 52.67 33.85 47.81 38.55 42.56 C 38.62 42.46 38.75 42.25 38.82 42.15 C 33.14 36.50 27.52 30.80 21.81 25.18 C 21.71 25.25 21.50 25.40 21.40 25.48 Z" />
                    <path fill="#a6c7ff" opacity="1.00" d=" M 38.81 7.77 C 43.59 3.12 52.09 3.58 56.34 8.70 C 60.76 13.39 60.37 21.39 55.72 25.78 C 51.18 30.18 46.94 34.93 42.18 39.07 C 36.50 33.24 30.73 27.50 24.91 21.82 C 29.31 16.93 34.13 12.40 38.81 7.77 M 49.43 9.37 C 47.33 12.27 52.64 13.94 52.24 16.99 C 52.93 19.83 48.65 21.89 50.55 24.57 C 52.49 26.21 54.55 24.16 55.38 22.41 C 58.29 17.79 56.36 10.22 50.95 8.64 C 50.57 8.82 49.81 9.19 49.43 9.37 Z" />
                    <path fill="#a6c7ff" opacity="1.00" d=" M 21.40 25.48 C 21.50 25.40 21.71 25.25 21.81 25.18 L 21.40 25.48 Z" />
                    <path fill="#a6c7ff" opacity="1.00" d=" M 6.47 40.62 C 6.50 40.58 6.56 40.49 6.59 40.45 C 6.56 40.49 6.50 40.58 6.47 40.62 Z" />
                    <path fill="#a6c7ff" opacity="1.00" d=" M 5.48 42.59 C 5.50 42.54 5.54 42.45 5.56 42.41 C 5.54 42.45 5.50 42.54 5.48 42.59 Z" />
                    <path fill="#a6c7ff" opacity="1.00" d=" M 38.82 42.15 C 38.75 42.25 38.62 42.46 38.55 42.56 L 38.82 42.15 Z" />
                    <path fill="#a6c7ff" opacity="1.00" d=" M 5.41 51.44 C 5.43 51.49 5.47 51.60 5.50 51.65 C 5.47 51.60 5.43 51.49 5.41 51.44 Z" />
                    <path fill="#a6c7ff" opacity="1.00" d=" M 6.36 53.40 C 6.39 53.45 6.45 53.55 6.48 53.60 C 6.45 53.55 6.39 53.45 6.36 53.40 Z" />
                    <path fill="#a6c7ff" opacity="1.00" d=" M 10.38 57.52 C 10.43 57.55 10.54 57.61 10.59 57.64 C 10.54 57.61 10.43 57.55 10.38 57.52 Z" />
                    <path fill="#a6c7ff" opacity="1.00" d=" M 23.32 57.56 C 23.36 57.53 23.45 57.47 23.50 57.44 C 23.45 57.47 23.36 57.53 23.32 57.56 Z" />
                    <path fill="#a6c7ff" opacity="1.00" d=" M 12.40 58.52 C 12.45 58.54 12.54 58.58 12.59 58.60 C 12.54 58.58 12.45 58.54 12.40 58.52 Z" />
                    <path fill="#a6c7ff" opacity="1.00" d=" M 21.42 58.50 C 21.47 58.48 21.57 58.43 21.62 58.41 C 21.57 58.43 21.47 58.48 21.42 58.50 Z" />
                    <path fill="#ffffff" opacity="1.00" d=" M 49.43 9.37 C 49.81 9.19 50.57 8.82 50.95 8.64 C 56.36 10.22 58.29 17.79 55.38 22.41 C 54.55 24.16 52.49 26.21 50.55 24.57 C 48.65 21.89 52.93 19.83 52.24 16.99 C 52.64 13.94 47.33 12.27 49.43 9.37 Z" />
                    <path fill="#ffffff" opacity="1.00" d=" M 6.59 40.45 C 11.29 35.25 16.24 30.22 21.40 25.48 L 21.81 25.18 C 27.52 30.80 33.14 36.50 38.82 42.15 L 38.55 42.56 C 33.85 47.81 28.69 52.67 23.50 57.44 C 23.45 57.47 23.36 57.53 23.32 57.56 L 21.62 58.41 C 21.57 58.43 21.47 58.48 21.42 58.50 C 18.63 59.60 15.40 59.65 12.59 58.60 C 12.54 58.58 12.45 58.54 12.40 58.52 L 10.59 57.64 C 10.54 57.61 10.43 57.55 10.38 57.52 C 8.82 56.51 7.48 55.17 6.48 53.60 C 6.45 53.55 6.39 53.45 6.36 53.40 L 5.50 51.65 C 5.47 51.60 5.43 51.49 5.41 51.44 C 4.46 48.62 4.43 45.38 5.48 42.59 C 5.50 42.54 5.54 42.45 5.56 42.41 L 6.47 40.62 C 6.50 40.58 6.56 40.49 6.59 40.45 Z" /> -->
                    
                </g>
            </g>
            <g class="rocket" id="rocket-1" transform="translate(40,10)" sketch:type="MSShapeGroup">
                <g class="rocket-body">
                    <path fill="#dc143c" opacity="1.00" d=" M 14.97 0.00 L 18.29 0.00 C 22.26 0.46 26.08 2.15 28.89 5.03 C 38.94 15.05 49.02 25.05 59.00 35.13 C 61.74 37.82 63.33 41.43 64.00 45.17 L 64.00 48.43 C 63.40 56.49 56.57 63.34 48.51 64.00 L 45.74 64.00 C 41.76 63.53 37.92 61.85 35.10 58.96 C 25.05 48.96 15.03 38.94 5.04 28.89 C 2.19 26.13 0.53 22.37 0.00 18.47 L 0.00 15.26 C 0.76 7.48 7.24 0.97 14.97 0.00 M 4.58 18.00 C 4.77 21.99 7.45 25.15 10.23 27.75 C 14.08 31.51 17.81 35.39 21.69 39.12 C 27.53 33.34 33.32 27.50 39.12 21.68 C 34.87 17.29 30.51 13.03 26.21 8.70 C 23.59 5.95 19.85 4.21 16.01 4.56 C 9.34 4.85 3.78 11.36 4.58 18.00 M 42.35 24.99 C 36.55 30.77 30.77 36.60 24.94 42.36 C 30.13 47.46 35.15 52.76 40.63 57.53 C 40.67 57.55 40.73 57.59 40.76 57.61 L 42.27 58.39 C 42.30 58.41 42.37 58.44 42.41 58.45 C 45.29 59.64 48.63 59.64 51.54 58.54 C 51.58 58.53 51.65 58.50 51.69 58.48 L 53.31 57.69 C 53.35 57.67 53.42 57.63 53.45 57.61 C 55.14 56.57 56.56 55.15 57.60 53.46 C 57.62 53.43 57.66 53.36 57.68 53.32 L 58.46 51.76 C 58.47 51.72 58.51 51.65 58.52 51.61 C 59.62 48.72 59.60 45.35 58.43 42.48 C 58.42 42.44 58.38 42.37 58.37 42.33 L 57.54 40.73 C 57.52 40.69 57.48 40.63 57.46 40.60 C 52.82 35.04 47.37 30.20 42.35 24.99 Z" />
                    <path fill="#fa8072" opacity="1.00" d=" M 4.58 18.00 C 3.78 11.36 9.34 4.85 16.01 4.56 C 19.85 4.21 23.59 5.95 26.21 8.70 C 30.51 13.03 34.87 17.29 39.12 21.68 C 33.32 27.50 27.53 33.34 21.69 39.12 C 17.81 35.39 14.08 31.51 10.23 27.75 C 7.45 25.15 4.77 21.99 4.58 18.00 M 10.40 24.64 C 11.79 26.24 14.87 24.22 13.85 22.30 C 12.78 20.37 11.09 18.35 11.94 15.98 C 12.27 13.60 15.50 12.67 15.13 10.11 C 14.60 9.67 13.54 8.79 13.00 8.34 C 6.73 10.91 5.29 20.22 10.40 24.64 Z" />
                    <path fill="#fa8072" opacity="1.00" d=" M 57.46 40.60 C 57.48 40.63 57.52 40.69 57.54 40.73 C 57.52 40.69 57.48 40.63 57.46 40.60 Z" />
                    <path fill="#fa8072" opacity="1.00" d=" M 58.37 42.33 C 58.38 42.37 58.42 42.44 58.43 42.48 C 58.42 42.44 58.38 42.37 58.37 42.33 Z" />
                    <path fill="#fa8072" opacity="1.00" d=" M 58.46 51.76 C 58.47 51.72 58.51 51.65 58.52 51.61 C 58.51 51.65 58.47 51.72 58.46 51.76 Z" />
                    <path fill="#fa8072" opacity="1.00" d=" M 57.60 53.46 C 57.62 53.43 57.66 53.36 57.68 53.32 C 57.66 53.36 57.62 53.43 57.60 53.46 Z" />
                    <path fill="#fa8072" opacity="1.00" d=" M 40.63 57.53 C 40.67 57.55 40.73 57.59 40.76 57.61 C 40.73 57.59 40.67 57.55 40.63 57.53 Z" />
                    <path fill="#fa8072" opacity="1.00" d=" M 53.31 57.69 C 53.35 57.67 53.42 57.63 53.45 57.61 C 53.42 57.63 53.35 57.67 53.31 57.69 Z" />
                    <path fill="#fa8072" opacity="1.00" d=" M 42.27 58.39 C 42.30 58.41 42.37 58.44 42.41 58.45 C 42.37 58.44 42.30 58.41 42.27 58.39 Z" />
                    <path fill="#fa8072" opacity="1.00" d=" M 51.54 58.54 C 51.58 58.53 51.65 58.50 51.69 58.48 C 51.65 58.50 51.58 58.53 51.54 58.54 Z" />
                    <path fill="#ffffff" opacity="1.00" d=" M 10.40 24.64 C 5.29 20.22 6.73 10.91 13.00 8.34 C 13.54 8.79 14.60 9.67 15.13 10.11 C 15.50 12.67 12.27 13.60 11.94 15.98 C 11.09 18.35 12.78 20.37 13.85 22.30 C 14.87 24.22 11.79 26.24 10.40 24.64 Z" />
                    <path fill="#ffffff" opacity="1.00" d=" M 42.35 24.99 C 47.37 30.20 52.82 35.04 57.46 40.60 C 57.48 40.63 57.52 40.69 57.54 40.73 L 58.37 42.33 C 58.38 42.37 58.42 42.44 58.43 42.48 C 59.60 45.35 59.62 48.72 58.52 51.61 C 58.51 51.65 58.47 51.72 58.46 51.76 L 57.68 53.32 C 57.66 53.36 57.62 53.43 57.60 53.46 C 56.56 55.15 55.14 56.57 53.45 57.61 C 53.42 57.63 53.35 57.67 53.31 57.69 L 51.69 58.48 C 51.65 58.50 51.58 58.53 51.54 58.54 C 48.63 59.64 45.29 59.64 42.41 58.45 C 42.37 58.44 42.30 58.41 42.27 58.39 L 40.76 57.61 C 40.73 57.59 40.67 57.55 40.63 57.53 C 35.15 52.76 30.13 47.46 24.94 42.36 C 30.77 36.60 36.55 30.77 42.35 24.99 Z" />
                </g>
            </g>
            <g id="planebody" sketch:type="MSShapeGroup">
              <circle stroke="null" id="svg_1" fill="#F0F0F0" r="63.776775" cy="63.999996" cx="64"/>
                <path stroke="null" id="svg_2" fill="#0052B4" d="m123.809913,86.183105c2.563777,-6.909068 3.966866,-14.381913 3.966866,-22.183108s-1.403089,-15.27404 -3.966866,-22.183108l-119.619827,0c-2.563528,6.909068 -3.966866,14.381913 -3.966866,22.183108s1.403338,15.27404 3.966866,22.183108l59.809913,5.545839l59.809913,-5.545839z"/>
                <path stroke="null" id="svg_3" fill="#D80027" d="m64,127.776775c27.421773,0 50.798703,-17.307423 59.809913,-41.593671l-119.619827,0c9.01121,24.286247 32.38814,41.593671 59.809913,41.593671z"/>
            </g>
        </g>
    </g>
</svg>